M48
;Layer_Color=9474304
;FILE_FORMAT=2:4
INCH,TZ
;TYPE=PLATED
T1F00S00C0.0157
T2F00S00C0.0197
T3F00S00C0.0236
T4F00S00C0.0315
;TYPE=NON_PLATED
T5F00S00C0.0591
T6F00S00C0.1181
%
T01
X4921Y4882
X5039Y5315
X10669Y5617
X10630Y2953
X11772Y2441
X11404Y6220
X11024
X12047Y7441
X12953Y8268
X12992Y8780
X12886Y11272
X12992Y11772
X10965Y12264
X10945Y11220
X10157Y10787
X10276Y10276
X10472Y9764
X10472Y9291
X8858Y9016
X7913Y9055
X7047Y8583
X7323Y7874
X6457Y7874
X5906Y7795
Y8150
X5866Y8543
X6102Y8819
X6457Y10315
X6890Y10354
X7047Y10748
X7441Y11142
X7480Y11732
X6929
X6575Y11614
X6535Y11063
X6378Y12165
X6024Y12201
X7126Y12165
X9094Y12638
X9813Y12589
X9331Y13307
X10315Y13307
X10354Y14409
X8701Y14764
X8189Y13976
X7756Y14055
X6102Y13622
X9016Y11535
X8858Y11181
X8474Y9833
X8976Y8031
X8898Y7244
X7874
X8543Y5906
X4331Y7087
X4646Y8740
X4921Y9646
X5472Y9921
X5118Y10669
X5118Y12008
X4055Y11644
X3878Y11260
X3976Y9646
X2500Y9980
X1496Y10039
X1378Y12441
X827Y13504
X709Y14764
X945Y15000
X2598Y14685
Y13976
X2008Y14016
X3268Y13976
Y13386
X2677Y13228
T02
X1693Y2638
X3228
X4016Y4055
X6457Y5079
X7283Y4685
X8740Y4094
X8858Y5551
X10000Y5039
X9961Y3543
Y2638
X9646Y5866
X9803Y6890
X7441Y5866
X6220Y5748
X5827Y17323
X8465
X9055Y15748
X15827Y16142
Y16535
Y16929
Y17323
X16220Y17126
Y16732
Y16339
X16614Y16535
Y16142
X17205
Y16535
Y16929
Y17323
X16614
Y16929
X17598Y17126
Y16732
Y16339
X17992Y16535
Y16142
Y16929
Y17323
Y11614
Y11220
Y10827
Y10433
X17598Y10630
Y11024
Y11417
X17205Y11614
Y11220
Y10827
Y10433
X16614
Y10827
Y11220
X16220Y11024
Y11417
X15827Y11614
Y11220
Y10827
Y10433
X16220Y10630
X3898Y8661
X1755Y8474
X1890Y10394
X748Y11102
X3268Y12362
X4331Y14646
X3976Y15354
X5512Y15945
X4528Y17323
X394
Y15551
Y6063
X1850Y5709
X2362Y6654
X3307Y6811
T03
X6024Y15591
X7953
T04
X614Y3886
Y4886
X1614Y4386
Y3386
X4374Y2937
X5374
X4874Y3937
X5874
X6874
X7874
X7374Y2937
X6374
X12165Y3945
Y4945
X13165Y5445
Y4445
Y3445
X12165Y5945
X16614Y11614
X18583Y11614
X12795Y16142
X11795
X10795
X9795
X9295Y17142
X10295
X11295
X12295
X7638Y17126
X6638
X6138Y16126
X7138
X4488Y16142
X3488
X2488
X1488
X988Y17142
X1988
X2988
X3988
T05
X906Y2835
X8425Y3228
X12874Y6496
X13346Y16850
X8189Y16417
X5039Y16850
T06
X1181Y1181
X12598
M30
