M48
;Layer_Color=9474304
;FILE_FORMAT=2:4
INCH,TZ
;TYPE=PLATED
T1F00S00C0.0157
T2F00S00C0.0197
T3F00S00C0.0315
;TYPE=NON_PLATED
T4F00S00C0.0591
T5F00S00C0.1181
%
T01
X4921Y4882
X5039Y5315
X10669Y5617
X10630Y2953
X11772Y2441
X11404Y6220
X11024
X12047Y7441
X12953Y8268
X12992Y8780
X12886Y11272
X12992Y11772
X10965Y12264
X10945Y11220
X10157Y10787
X10276Y10276
X10472Y9764
X10472Y9291
X8858Y9016
X7913Y9055
X7047Y8583
X7323Y7874
X6457Y7874
X5906Y7795
Y8150
X5866Y8543
X6102Y8819
X6457Y10315
X6890Y10354
X7047Y10748
X7441Y11142
X7480Y11732
X6929
X6575Y11614
X6535Y11063
X6378Y12165
X6024Y12201
X7126Y12165
X8504Y11417
Y10827
X8474Y9833
X8976Y8031
X8898Y7244
X7874
X8543Y5906
X9055Y11850
X9094Y12638
X9813Y12589
X9921Y12244
X10315Y13307
X9331Y13307
X8189Y13976
X7756Y14055
X8701Y14764
X10354Y14409
X5433Y13504
X5118Y12008
X5118Y10669
X5472Y9921
X4921Y9646
X3976Y9646
X4646Y8740
X4331Y7087
X3878Y11260
X4055Y11644
X3386Y12953
X2559Y13189
X2165
X787Y12913
X394
X3268Y13976
X2500Y9980
X1496Y10039
T02
X1693Y2638
X3228
X4016Y4055
X6457Y5079
X7283Y4685
X8740Y4094
X8858Y5551
X10000Y5039
X9961Y3543
Y2638
X9646Y5866
X9803Y6890
X7441Y5866
X6220Y5748
X6260Y13583
X5945Y17087
X8583Y17441
X9094Y16457
X9055Y15748
X5512Y15945
X5354Y14764
X4370Y15354
X1811Y15197
Y14803
X1417
Y15197
X1024
Y14803
X1024Y14173
X1024Y13701
X1693Y13898
X2205Y14331
X2559
X1457Y12913
Y12480
X3346Y12323
X1890Y10394
X748Y11102
X1755Y8474
X3898Y8661
X3307Y6811
X2362Y6654
X1850Y5709
X394Y6063
X669Y16024
X354Y17126
T03
X614Y3886
Y4886
X1614Y4386
Y3386
X4374Y2937
X5374
X4874Y3937
X5874
X6874
X7874
X7374Y2937
X6374
X12165Y3945
Y4945
X13165Y5445
Y4445
Y3445
X12165Y5945
X11795Y16142
X10795
X9795
X9295Y17142
X10295
X11295
X12295
X12795Y16142
X7138Y16126
X6138
X6638Y17126
X7638
X3988Y17142
X2988
X1988
X988
X1488Y16142
X2488
X3488
X4488
T04
X906Y2835
X8425Y3228
X12874Y6496
X13346Y16850
X8189Y16417
X5039Y16850
T05
X1181Y1181
X12598
M30
