G04 Layer_Color=32896*
%FSLAX24Y24*%
%MOIN*%
G70*
G01*
G75*
%ADD51C,0.0079*%
%ADD53C,0.0050*%
%ADD92C,0.0040*%
D51*
X10650Y5817D02*
G03*
X10650Y5915I0J49D01*
G01*
X16234Y14590D02*
G03*
X16234Y14340I0J-125D01*
G01*
X19581Y14590D02*
G03*
X19581Y14340I0J-125D01*
G01*
X16882Y11287D02*
G03*
X18262Y11191I716J327D01*
G01*
Y12037D02*
G03*
X16882Y11942I-664J-423D01*
G01*
X10650Y5915D02*
Y6118D01*
Y5614D02*
Y5817D01*
Y5614D02*
X11634D01*
Y6118D01*
X10650D02*
X11634D01*
X3852Y7508D02*
Y12211D01*
X9061D01*
Y7002D02*
Y12211D01*
X4358Y7002D02*
X9061D01*
X3852Y7508D02*
X4358Y7002D01*
X16234Y14222D02*
Y14340D01*
Y14590D02*
Y14707D01*
X14234D02*
X16234D01*
X14234Y14222D02*
Y14707D01*
Y14222D02*
X16234D01*
X16348Y14396D02*
Y14494D01*
Y14396D02*
X17470D01*
Y14494D01*
X16348D02*
X17470D01*
X19581Y14222D02*
Y14340D01*
Y14590D02*
Y14707D01*
X17581D02*
X19581D01*
X17581Y14222D02*
Y14707D01*
Y14222D02*
X19581D01*
D53*
X11594Y7601D02*
X11714D01*
X11594Y7281D02*
X11714D01*
X10442Y3867D02*
X10817D01*
X10442Y4007D02*
X10817D01*
X11594Y7872D02*
X11714D01*
X11594Y8191D02*
X11714D01*
X7214Y13771D02*
X7589D01*
X7214Y13631D02*
X7589D01*
X10700Y11033D02*
Y11408D01*
X10560Y11033D02*
Y11408D01*
X10570Y11971D02*
X10690D01*
X10570Y11651D02*
X10690D01*
X5424Y5600D02*
Y5975D01*
X5284Y5600D02*
Y5975D01*
X2717Y7598D02*
X2835D01*
X2717Y7559D02*
X2835D01*
Y7638D01*
X1417Y7559D02*
Y7638D01*
Y7559D02*
X1535D01*
X1417Y7598D02*
X1535D01*
Y6614D02*
Y7638D01*
X1417D02*
X1535D01*
X2717D02*
X2835D01*
X2717Y6614D02*
Y7638D01*
X2067Y8208D02*
Y8721D01*
X1949Y8208D02*
Y8721D01*
X2095Y10206D02*
Y10581D01*
X2235Y10206D02*
Y10581D01*
X2213Y12372D02*
Y12747D01*
X2353Y12372D02*
Y12747D01*
X2105Y9963D02*
X2225D01*
X2105Y9643D02*
X2225D01*
X1151Y11448D02*
X1526D01*
X1151Y11308D02*
X1526D01*
X5039Y13780D02*
X5157D01*
X5039Y13819D02*
X5157D01*
X5039Y13740D02*
Y13819D01*
X6457Y13740D02*
Y13819D01*
X6339D02*
X6457D01*
X6339Y13780D02*
X6457D01*
X6339Y13740D02*
Y14764D01*
Y13740D02*
X6457D01*
X5039D02*
X5157D01*
Y14764D01*
X1575Y14419D02*
Y15109D01*
X1260Y14419D02*
Y15109D01*
X1575Y12962D02*
Y13652D01*
X1260Y12962D02*
Y13652D01*
X16960Y15364D02*
Y15739D01*
X16820Y15364D02*
Y15739D01*
X16869Y13186D02*
X16989D01*
X16869Y13506D02*
X16989D01*
D92*
X2105Y8974D02*
X2225D01*
X2105Y9294D02*
X2225D01*
M02*
