G04 Layer_Color=16711935*
%FSLAX24Y24*%
%MOIN*%
G70*
G01*
G75*
G04:AMPARAMS|DCode=55|XSize=47.4mil|YSize=43.4mil|CornerRadius=8.4mil|HoleSize=0mil|Usage=FLASHONLY|Rotation=180.000|XOffset=0mil|YOffset=0mil|HoleType=Round|Shape=RoundedRectangle|*
%AMROUNDEDRECTD55*
21,1,0.0474,0.0266,0,0,180.0*
21,1,0.0305,0.0434,0,0,180.0*
1,1,0.0169,-0.0153,0.0133*
1,1,0.0169,0.0153,0.0133*
1,1,0.0169,0.0153,-0.0133*
1,1,0.0169,-0.0153,-0.0133*
%
%ADD55ROUNDEDRECTD55*%
G04:AMPARAMS|DCode=57|XSize=47.4mil|YSize=43.4mil|CornerRadius=8.4mil|HoleSize=0mil|Usage=FLASHONLY|Rotation=270.000|XOffset=0mil|YOffset=0mil|HoleType=Round|Shape=RoundedRectangle|*
%AMROUNDEDRECTD57*
21,1,0.0474,0.0266,0,0,270.0*
21,1,0.0305,0.0434,0,0,270.0*
1,1,0.0169,-0.0133,-0.0153*
1,1,0.0169,-0.0133,0.0153*
1,1,0.0169,0.0133,0.0153*
1,1,0.0169,0.0133,-0.0153*
%
%ADD57ROUNDEDRECTD57*%
%ADD61R,0.0671X0.0198*%
%ADD62R,0.0198X0.0671*%
%ADD72C,0.0080*%
%ADD73C,0.0080*%
%ADD74C,0.0592*%
%ADD75R,0.0612X0.0612*%
%ADD76C,0.0612*%
%ADD77C,0.0434*%
%ADD78C,0.0356*%
%ADD79C,0.0395*%
%ADD80C,0.0474*%
%ADD81R,0.0198X0.0651*%
%ADD82O,0.0198X0.0651*%
G04:AMPARAMS|DCode=83|XSize=98.6mil|YSize=78.9mil|CornerRadius=12.9mil|HoleSize=0mil|Usage=FLASHONLY|Rotation=180.000|XOffset=0mil|YOffset=0mil|HoleType=Round|Shape=RoundedRectangle|*
%AMROUNDEDRECTD83*
21,1,0.0986,0.0532,0,0,180.0*
21,1,0.0728,0.0789,0,0,180.0*
1,1,0.0257,-0.0364,0.0266*
1,1,0.0257,0.0364,0.0266*
1,1,0.0257,0.0364,-0.0266*
1,1,0.0257,-0.0364,-0.0266*
%
%ADD83ROUNDEDRECTD83*%
G04:AMPARAMS|DCode=84|XSize=63.1mil|YSize=47.4mil|CornerRadius=8.9mil|HoleSize=0mil|Usage=FLASHONLY|Rotation=90.000|XOffset=0mil|YOffset=0mil|HoleType=Round|Shape=RoundedRectangle|*
%AMROUNDEDRECTD84*
21,1,0.0631,0.0295,0,0,90.0*
21,1,0.0453,0.0474,0,0,90.0*
1,1,0.0178,0.0148,0.0226*
1,1,0.0178,0.0148,-0.0226*
1,1,0.0178,-0.0148,-0.0226*
1,1,0.0178,-0.0148,0.0226*
%
%ADD84ROUNDEDRECTD84*%
%ADD85R,0.0493X0.0592*%
G04:AMPARAMS|DCode=86|XSize=78.9mil|YSize=53.3mil|CornerRadius=9.7mil|HoleSize=0mil|Usage=FLASHONLY|Rotation=270.000|XOffset=0mil|YOffset=0mil|HoleType=Round|Shape=RoundedRectangle|*
%AMROUNDEDRECTD86*
21,1,0.0789,0.0340,0,0,270.0*
21,1,0.0595,0.0533,0,0,270.0*
1,1,0.0193,-0.0170,-0.0298*
1,1,0.0193,-0.0170,0.0298*
1,1,0.0193,0.0170,0.0298*
1,1,0.0193,0.0170,-0.0298*
%
%ADD86ROUNDEDRECTD86*%
%ADD87R,0.0363X0.0781*%
%ADD88O,0.0363X0.0781*%
%ADD89O,0.0316X0.0552*%
%ADD90R,0.0316X0.0552*%
%ADD91R,0.1261X0.1655*%
D55*
X10630Y4272D02*
D03*
Y3602D02*
D03*
X7402Y13366D02*
D03*
Y14035D02*
D03*
X1339Y11043D02*
D03*
Y11713D02*
D03*
D57*
X11988Y7441D02*
D03*
X11319D02*
D03*
X11319Y8031D02*
D03*
X11988D02*
D03*
X10295Y11220D02*
D03*
X10965D02*
D03*
Y11811D02*
D03*
X10295D02*
D03*
X5020Y5787D02*
D03*
X5689D02*
D03*
X2500Y10394D02*
D03*
X1831D02*
D03*
X2618Y12559D02*
D03*
X1949D02*
D03*
X1831Y9134D02*
D03*
X2500D02*
D03*
Y9803D02*
D03*
X1831D02*
D03*
X16555Y15551D02*
D03*
X17224D02*
D03*
X16594Y13346D02*
D03*
X17264D02*
D03*
D61*
X3346Y7244D02*
D03*
Y7441D02*
D03*
Y7638D02*
D03*
Y7835D02*
D03*
Y8031D02*
D03*
Y8228D02*
D03*
Y8425D02*
D03*
Y8622D02*
D03*
Y8819D02*
D03*
Y9016D02*
D03*
Y9213D02*
D03*
Y9409D02*
D03*
Y9606D02*
D03*
Y9803D02*
D03*
Y10000D02*
D03*
Y10197D02*
D03*
Y10394D02*
D03*
Y10591D02*
D03*
Y10787D02*
D03*
Y10984D02*
D03*
Y11181D02*
D03*
Y11378D02*
D03*
Y11575D02*
D03*
Y11772D02*
D03*
Y11968D02*
D03*
X9567D02*
D03*
Y11772D02*
D03*
Y11575D02*
D03*
Y11378D02*
D03*
Y11181D02*
D03*
Y10984D02*
D03*
Y10787D02*
D03*
Y10591D02*
D03*
Y10394D02*
D03*
Y10197D02*
D03*
Y10000D02*
D03*
Y9803D02*
D03*
Y9606D02*
D03*
Y9409D02*
D03*
Y9213D02*
D03*
Y9016D02*
D03*
Y8819D02*
D03*
Y8622D02*
D03*
Y8425D02*
D03*
Y8228D02*
D03*
Y8031D02*
D03*
Y7835D02*
D03*
Y7638D02*
D03*
Y7441D02*
D03*
Y7244D02*
D03*
D62*
X4094Y12717D02*
D03*
X4291D02*
D03*
X4488D02*
D03*
X4685D02*
D03*
X4882D02*
D03*
X5079D02*
D03*
X5276D02*
D03*
X5472D02*
D03*
X5669D02*
D03*
X5866D02*
D03*
X6063D02*
D03*
X6260D02*
D03*
X6457D02*
D03*
X6654D02*
D03*
X6850D02*
D03*
X7047D02*
D03*
X7244D02*
D03*
X7441D02*
D03*
X7638D02*
D03*
X7835D02*
D03*
X8031D02*
D03*
X8228D02*
D03*
X8425D02*
D03*
X8622D02*
D03*
X8819D02*
D03*
Y6496D02*
D03*
X8622D02*
D03*
X8425D02*
D03*
X8228D02*
D03*
X8031D02*
D03*
X7835D02*
D03*
X7638D02*
D03*
X7441D02*
D03*
X7244D02*
D03*
X7047D02*
D03*
X6850D02*
D03*
X6654D02*
D03*
X6457D02*
D03*
X6260D02*
D03*
X6063D02*
D03*
X5866D02*
D03*
X5669D02*
D03*
X5472D02*
D03*
X5276D02*
D03*
X5079D02*
D03*
X4882D02*
D03*
X4685D02*
D03*
X4488D02*
D03*
X4291D02*
D03*
X4094D02*
D03*
D72*
X12598Y1181D02*
D03*
X1181D02*
D03*
D73*
X13346Y16850D02*
D03*
X8425Y3228D02*
D03*
X8189Y16417D02*
D03*
X12874Y6496D02*
D03*
X906Y2835D02*
D03*
X5039Y16850D02*
D03*
D74*
X9295Y17142D02*
D03*
X9795Y16142D02*
D03*
X10295Y17142D02*
D03*
X10795Y16142D02*
D03*
X11295Y17142D02*
D03*
X11795Y16142D02*
D03*
X12295Y17142D02*
D03*
X12795Y16142D02*
D03*
X7874Y3937D02*
D03*
X7374Y2937D02*
D03*
X6874Y3937D02*
D03*
X6374Y2937D02*
D03*
X5874Y3937D02*
D03*
X5374Y2937D02*
D03*
X4874Y3937D02*
D03*
X4374Y2937D02*
D03*
X6138Y16126D02*
D03*
X6638Y17126D02*
D03*
X7138Y16126D02*
D03*
X7638Y17126D02*
D03*
X12165Y5945D02*
D03*
X13165Y5445D02*
D03*
X12165Y4945D02*
D03*
X13165Y4445D02*
D03*
X12165Y3945D02*
D03*
X13165Y3445D02*
D03*
X614Y4886D02*
D03*
X1614Y4386D02*
D03*
X614Y3886D02*
D03*
X1614Y3386D02*
D03*
X988Y17142D02*
D03*
X1488Y16142D02*
D03*
X1988Y17142D02*
D03*
X2488Y16142D02*
D03*
X2988Y17142D02*
D03*
X3488Y16142D02*
D03*
X3988Y17142D02*
D03*
X4488Y16142D02*
D03*
D75*
X18583Y11614D02*
D03*
D76*
X16614Y11614D02*
D03*
D77*
X7441Y5866D02*
D03*
X7283Y4685D02*
D03*
X9646Y5866D02*
D03*
X8858Y5551D02*
D03*
X1755Y8474D02*
D03*
X1890Y10394D02*
D03*
X748Y11102D02*
D03*
X10000Y5039D02*
D03*
X1850Y5709D02*
D03*
X2362Y6654D02*
D03*
X3307Y6811D02*
D03*
X4016Y4055D02*
D03*
X1693Y2638D02*
D03*
X3228D02*
D03*
X9803Y6890D02*
D03*
X9961Y2638D02*
D03*
Y3543D02*
D03*
X6220Y5748D02*
D03*
X6457Y5079D02*
D03*
X8740Y4094D02*
D03*
X3898Y8661D02*
D03*
X394Y6063D02*
D03*
Y17323D02*
D03*
Y15551D02*
D03*
X5827Y17323D02*
D03*
X4528D02*
D03*
X5512Y15945D02*
D03*
X8465Y17323D02*
D03*
X9055Y15748D02*
D03*
X3268Y12362D02*
D03*
X16220Y11024D02*
D03*
X17598D02*
D03*
X17205Y11614D02*
D03*
X17992D02*
D03*
Y10433D02*
D03*
X17205D02*
D03*
X15827Y11614D02*
D03*
Y10433D02*
D03*
X16614D02*
D03*
X16220Y11417D02*
D03*
X15827Y11220D02*
D03*
Y10827D02*
D03*
X16220Y10630D02*
D03*
X16614Y10827D02*
D03*
Y11220D02*
D03*
X17205D02*
D03*
Y10827D02*
D03*
X17598Y11417D02*
D03*
X17992Y11220D02*
D03*
Y10827D02*
D03*
X17598Y10630D02*
D03*
X16220Y16732D02*
D03*
X17598D02*
D03*
X15827Y17323D02*
D03*
Y16142D02*
D03*
X16614D02*
D03*
Y17323D02*
D03*
X16220Y17126D02*
D03*
X15827Y16929D02*
D03*
Y16535D02*
D03*
X16220Y16339D02*
D03*
X16614Y16535D02*
D03*
Y16929D02*
D03*
X17205Y17323D02*
D03*
X17992D02*
D03*
Y16142D02*
D03*
X17205D02*
D03*
Y16535D02*
D03*
Y16929D02*
D03*
X17598Y17126D02*
D03*
X17992Y16929D02*
D03*
Y16535D02*
D03*
X17598Y16339D02*
D03*
D78*
X8858Y9016D02*
D03*
X10472Y9291D02*
D03*
X8543Y5906D02*
D03*
X3976Y9646D02*
D03*
X10630Y2953D02*
D03*
X10669Y5617D02*
D03*
X11024Y6220D02*
D03*
X11404D02*
D03*
X12047Y7441D02*
D03*
X11772Y2441D02*
D03*
X7126Y12165D02*
D03*
X4921Y9646D02*
D03*
X5472Y9921D02*
D03*
X6457Y10315D02*
D03*
X6535Y11063D02*
D03*
X6575Y11614D02*
D03*
X5118Y10669D02*
D03*
X5118Y12008D02*
D03*
X3878Y11260D02*
D03*
X8858Y11181D02*
D03*
X9016Y11535D02*
D03*
X10157Y10787D02*
D03*
X10945Y11220D02*
D03*
X10472Y9764D02*
D03*
X6929Y11732D02*
D03*
X7441Y11142D02*
D03*
X7047Y10748D02*
D03*
X6890Y10354D02*
D03*
X7480Y11732D02*
D03*
X6024Y12201D02*
D03*
X6378Y12165D02*
D03*
X4921Y4882D02*
D03*
X4331Y7087D02*
D03*
X5906Y8150D02*
D03*
X6457Y7874D02*
D03*
X4646Y8740D02*
D03*
X12886Y11272D02*
D03*
X12992Y11772D02*
D03*
X10276Y10276D02*
D03*
X5039Y5315D02*
D03*
X12992Y8780D02*
D03*
X12953Y8268D02*
D03*
X7913Y9055D02*
D03*
X10965Y12264D02*
D03*
X8976Y8031D02*
D03*
X6102Y13622D02*
D03*
X5906Y7795D02*
D03*
X6102Y8819D02*
D03*
X5866Y8543D02*
D03*
X1496Y10039D02*
D03*
X2500Y9980D02*
D03*
X4055Y11644D02*
D03*
X8474Y9833D02*
D03*
X9094Y12638D02*
D03*
X9331Y13307D02*
D03*
X8189Y13976D02*
D03*
X7756Y14055D02*
D03*
D79*
X945Y15000D02*
D03*
X709Y14764D02*
D03*
X3268Y13976D02*
D03*
Y13386D02*
D03*
X1378Y12441D02*
D03*
X2677Y13228D02*
D03*
X2598Y13976D02*
D03*
X2008Y14016D02*
D03*
X2598Y14685D02*
D03*
X10354Y14409D02*
D03*
X8701Y14764D02*
D03*
X8898Y7244D02*
D03*
X7874D02*
D03*
X7323Y7874D02*
D03*
X7047Y8583D02*
D03*
X10315Y13307D02*
D03*
X827Y13504D02*
D03*
X3976Y15354D02*
D03*
X4331Y14646D02*
D03*
X9813Y12589D02*
D03*
D80*
X6024Y15591D02*
D03*
X7953D02*
D03*
D81*
X10748Y6732D02*
D03*
D82*
X10945D02*
D03*
X11142D02*
D03*
X11339D02*
D03*
X11535D02*
D03*
X10748Y5000D02*
D03*
X10945D02*
D03*
X11142D02*
D03*
X11339D02*
D03*
X11535D02*
D03*
D83*
X2126Y6476D02*
D03*
Y7618D02*
D03*
X5748Y14902D02*
D03*
Y13760D02*
D03*
D84*
X2362Y8465D02*
D03*
X1654D02*
D03*
D85*
X1909Y11890D02*
D03*
Y10984D02*
D03*
X2638D02*
D03*
Y11890D02*
D03*
D86*
X827Y14764D02*
D03*
X2008D02*
D03*
X827Y13307D02*
D03*
X2008D02*
D03*
D87*
X15984Y13543D02*
D03*
X19331D02*
D03*
D88*
X15484D02*
D03*
X14984D02*
D03*
X14484D02*
D03*
X15984Y15386D02*
D03*
X15484D02*
D03*
X14984D02*
D03*
X14484D02*
D03*
X18831Y13543D02*
D03*
X18331D02*
D03*
X17831D02*
D03*
X19331Y15386D02*
D03*
X18831D02*
D03*
X18331D02*
D03*
X17831D02*
D03*
D89*
X17283Y13929D02*
D03*
X16909D02*
D03*
X16535D02*
D03*
X17283Y14961D02*
D03*
X16909D02*
D03*
D90*
X16535D02*
D03*
D91*
X18976Y11024D02*
D03*
Y16732D02*
D03*
X16220Y11024D02*
D03*
X14843D02*
D03*
Y16732D02*
D03*
X16220D02*
D03*
X17598Y11024D02*
D03*
Y16732D02*
D03*
M02*
