G04 Layer_Physical_Order=1*
G04 Layer_Color=255*
%FSLAX24Y24*%
%MOIN*%
G70*
G01*
G75*
G04:AMPARAMS|DCode=10|XSize=39.4mil|YSize=35.4mil|CornerRadius=4.4mil|HoleSize=0mil|Usage=FLASHONLY|Rotation=180.000|XOffset=0mil|YOffset=0mil|HoleType=Round|Shape=RoundedRectangle|*
%AMROUNDEDRECTD10*
21,1,0.0394,0.0266,0,0,180.0*
21,1,0.0305,0.0354,0,0,180.0*
1,1,0.0089,-0.0153,0.0133*
1,1,0.0089,0.0153,0.0133*
1,1,0.0089,0.0153,-0.0133*
1,1,0.0089,-0.0153,-0.0133*
%
%ADD10ROUNDEDRECTD10*%
G04:AMPARAMS|DCode=11|XSize=39.4mil|YSize=35.4mil|CornerRadius=4.4mil|HoleSize=0mil|Usage=FLASHONLY|Rotation=270.000|XOffset=0mil|YOffset=0mil|HoleType=Round|Shape=RoundedRectangle|*
%AMROUNDEDRECTD11*
21,1,0.0394,0.0266,0,0,270.0*
21,1,0.0305,0.0354,0,0,270.0*
1,1,0.0089,-0.0133,-0.0153*
1,1,0.0089,-0.0133,0.0153*
1,1,0.0089,0.0133,0.0153*
1,1,0.0089,0.0133,-0.0153*
%
%ADD11ROUNDEDRECTD11*%
G04:AMPARAMS|DCode=12|XSize=31.5mil|YSize=31.5mil|CornerRadius=3.9mil|HoleSize=0mil|Usage=FLASHONLY|Rotation=90.000|XOffset=0mil|YOffset=0mil|HoleType=Round|Shape=RoundedRectangle|*
%AMROUNDEDRECTD12*
21,1,0.0315,0.0236,0,0,90.0*
21,1,0.0236,0.0315,0,0,90.0*
1,1,0.0079,0.0118,0.0118*
1,1,0.0079,0.0118,-0.0118*
1,1,0.0079,-0.0118,-0.0118*
1,1,0.0079,-0.0118,0.0118*
%
%ADD12ROUNDEDRECTD12*%
%ADD13R,0.0394X0.0354*%
G04:AMPARAMS|DCode=14|XSize=23.6mil|YSize=27.6mil|CornerRadius=3mil|HoleSize=0mil|Usage=FLASHONLY|Rotation=90.000|XOffset=0mil|YOffset=0mil|HoleType=Round|Shape=RoundedRectangle|*
%AMROUNDEDRECTD14*
21,1,0.0236,0.0217,0,0,90.0*
21,1,0.0177,0.0276,0,0,90.0*
1,1,0.0059,0.0108,0.0089*
1,1,0.0059,0.0108,-0.0089*
1,1,0.0059,-0.0108,-0.0089*
1,1,0.0059,-0.0108,0.0089*
%
%ADD14ROUNDEDRECTD14*%
%ADD15O,0.0591X0.0118*%
%ADD16R,0.0591X0.0118*%
%ADD17R,0.0118X0.0591*%
G04:AMPARAMS|DCode=18|XSize=90.6mil|YSize=70.9mil|CornerRadius=8.9mil|HoleSize=0mil|Usage=FLASHONLY|Rotation=90.000|XOffset=0mil|YOffset=0mil|HoleType=Round|Shape=RoundedRectangle|*
%AMROUNDEDRECTD18*
21,1,0.0906,0.0532,0,0,90.0*
21,1,0.0728,0.0709,0,0,90.0*
1,1,0.0177,0.0266,0.0364*
1,1,0.0177,0.0266,-0.0364*
1,1,0.0177,-0.0266,-0.0364*
1,1,0.0177,-0.0266,0.0364*
%
%ADD18ROUNDEDRECTD18*%
G04:AMPARAMS|DCode=19|XSize=63mil|YSize=39.4mil|CornerRadius=9.8mil|HoleSize=0mil|Usage=FLASHONLY|Rotation=0.000|XOffset=0mil|YOffset=0mil|HoleType=Round|Shape=RoundedRectangle|*
%AMROUNDEDRECTD19*
21,1,0.0630,0.0197,0,0,0.0*
21,1,0.0433,0.0394,0,0,0.0*
1,1,0.0197,0.0217,-0.0098*
1,1,0.0197,-0.0217,-0.0098*
1,1,0.0197,-0.0217,0.0098*
1,1,0.0197,0.0217,0.0098*
%
%ADD19ROUNDEDRECTD19*%
%ADD20O,0.0335X0.0138*%
%ADD21R,0.0335X0.0138*%
%ADD22O,0.0610X0.0236*%
%ADD23R,0.0610X0.0236*%
%ADD24R,0.0394X0.0846*%
%ADD25R,0.1280X0.0846*%
G04:AMPARAMS|DCode=26|XSize=39.4mil|YSize=55.1mil|CornerRadius=4.9mil|HoleSize=0mil|Usage=FLASHONLY|Rotation=90.000|XOffset=0mil|YOffset=0mil|HoleType=Round|Shape=RoundedRectangle|*
%AMROUNDEDRECTD26*
21,1,0.0394,0.0453,0,0,90.0*
21,1,0.0295,0.0551,0,0,90.0*
1,1,0.0098,0.0226,0.0148*
1,1,0.0098,0.0226,-0.0148*
1,1,0.0098,-0.0226,-0.0148*
1,1,0.0098,-0.0226,0.0148*
%
%ADD26ROUNDEDRECTD26*%
%ADD27C,0.0197*%
%ADD28C,0.0118*%
%ADD29C,0.0157*%
%ADD30C,0.0138*%
%ADD31C,0.0315*%
%ADD32C,0.0512*%
%ADD33C,0.0315*%
%ADD34C,0.0354*%
%ADD35C,0.0276*%
G36*
X6196Y12283D02*
X6174Y12250D01*
X6157Y12165D01*
X6174Y12081D01*
X6222Y12009D01*
X6229Y11936D01*
X6166Y11873D01*
X5705D01*
X5705Y11873D01*
X5476D01*
X5476Y11873D01*
X4980D01*
Y12162D01*
X5529D01*
X5582Y12172D01*
X5628Y12203D01*
X5710Y12285D01*
X5740Y12330D01*
X5746Y12362D01*
X6154D01*
X6196Y12283D01*
D02*
G37*
G36*
X7677Y14370D02*
X7989D01*
Y14101D01*
X7982Y14091D01*
X7969Y14026D01*
Y13981D01*
X7968Y13976D01*
X7969Y13972D01*
Y13297D01*
X7982Y13232D01*
X8019Y13177D01*
X8074Y13140D01*
X8140Y13127D01*
X8547D01*
X8849Y12825D01*
X8907Y12786D01*
X8976Y12772D01*
X9268D01*
Y12217D01*
X9189Y12193D01*
X9178Y12210D01*
X9138Y12237D01*
X9090Y12247D01*
X8784D01*
X8736Y12237D01*
X8696Y12210D01*
X8669Y12169D01*
X8659Y12121D01*
Y11855D01*
X8667Y11816D01*
X8661Y11811D01*
Y11496D01*
X8667Y11491D01*
X8659Y11452D01*
Y11318D01*
X8623Y11282D01*
X8366D01*
Y11791D01*
Y12264D01*
X7618D01*
Y11995D01*
X7604Y11980D01*
X7539Y11941D01*
X7480Y11953D01*
X7396Y11936D01*
X7324Y11888D01*
X7276Y11817D01*
X7260Y11732D01*
X7276Y11648D01*
X7308Y11601D01*
X7186Y11479D01*
X7082D01*
X7058Y11558D01*
X7085Y11576D01*
X7133Y11648D01*
X7150Y11732D01*
X7133Y11817D01*
X7085Y11888D01*
X7014Y11936D01*
X6929Y11953D01*
X6911Y11949D01*
X6871Y11989D01*
X6825Y12020D01*
X6772Y12030D01*
X6636D01*
X6588Y12109D01*
X6599Y12165D01*
X6582Y12250D01*
X6559Y12283D01*
X6599Y12362D01*
X6929D01*
Y12723D01*
X6932Y12736D01*
X7045D01*
X7047Y12723D01*
Y12362D01*
X7520D01*
Y12723D01*
X7522Y12736D01*
Y14368D01*
X7633D01*
X7672Y14375D01*
X7677Y14370D01*
D02*
G37*
G36*
X1943Y13097D02*
X1995Y13019D01*
X2073Y12966D01*
X2087Y12964D01*
Y12205D01*
X2212D01*
X2230Y12193D01*
X2283Y12182D01*
X2727D01*
X2806Y12104D01*
X2775Y12031D01*
X2480D01*
X2411Y12017D01*
X2353Y11978D01*
X2313Y11920D01*
X2300Y11850D01*
Y11755D01*
X1655D01*
X1602Y11744D01*
X1556Y11714D01*
X1121Y11279D01*
X1091Y11233D01*
X1080Y11179D01*
Y10788D01*
X1001Y10728D01*
X984Y10732D01*
X551D01*
X535Y10729D01*
X456Y10788D01*
Y11416D01*
X535Y11476D01*
X551Y11473D01*
X984D01*
X1053Y11487D01*
X1112Y11526D01*
X1151Y11584D01*
X1165Y11654D01*
Y11850D01*
X1151Y11920D01*
X1112Y11978D01*
X1053Y12017D01*
X984Y12031D01*
X551D01*
X535Y12028D01*
X456Y12088D01*
Y12205D01*
X827D01*
Y12680D01*
X880Y12691D01*
X958Y12743D01*
X1010Y12821D01*
X1028Y12913D01*
X1010Y13006D01*
X968Y13068D01*
X987Y13125D01*
X1003Y13147D01*
X1933D01*
X1943Y13097D01*
D02*
G37*
G36*
X3815Y12223D02*
X3861Y12193D01*
X3915Y12182D01*
Y11810D01*
X3899Y11800D01*
X3851Y11728D01*
X3834Y11644D01*
X3851Y11559D01*
X3899Y11488D01*
X3971Y11440D01*
X4033Y11427D01*
Y11141D01*
X3879Y10987D01*
X3784D01*
X3736Y10977D01*
X3696Y10950D01*
X3669Y10909D01*
X3659Y10861D01*
Y10595D01*
X3667Y10557D01*
X3661Y10551D01*
Y10236D01*
X3667Y10231D01*
X3659Y10192D01*
Y10118D01*
X3937D01*
Y10059D01*
X3996D01*
Y9801D01*
X4090D01*
X4138Y9810D01*
X4154Y9821D01*
X4232Y9823D01*
X4232Y9823D01*
X4547D01*
Y9961D01*
X4606D01*
Y10020D01*
X4980D01*
Y10214D01*
X5197D01*
X5251Y10225D01*
X5296Y10255D01*
X5413Y10371D01*
X5808D01*
X6239Y9940D01*
X6285Y9910D01*
X6339Y9899D01*
X6571D01*
X6571Y9899D01*
X7184D01*
X7286Y9797D01*
X7256Y9724D01*
X7244D01*
Y9364D01*
X7241Y9350D01*
X7126D01*
Y9724D01*
X5696D01*
X5654Y9803D01*
X5676Y9837D01*
X5693Y9921D01*
X5676Y10006D01*
X5629Y10077D01*
X5557Y10125D01*
X5472Y10142D01*
X5388Y10125D01*
X5316Y10077D01*
X5268Y10006D01*
X5256Y9943D01*
X5117Y9804D01*
X5087Y9758D01*
X5080Y9724D01*
X5079D01*
Y9718D01*
X5076Y9705D01*
Y9547D01*
X4997Y9490D01*
X4995Y9491D01*
X4729D01*
X4690Y9483D01*
X4685Y9488D01*
X4370D01*
X4365Y9483D01*
X4326Y9491D01*
X4252D01*
Y9213D01*
X4193D01*
Y9154D01*
X3935D01*
Y9060D01*
X3944Y9012D01*
X3971Y8971D01*
X4012Y8944D01*
X4060Y8935D01*
X4174D01*
X4218Y8865D01*
X4219Y8856D01*
X4210Y8814D01*
Y8509D01*
X4220Y8461D01*
X4247Y8420D01*
X4288Y8393D01*
X4336Y8383D01*
X4601D01*
X4640Y8391D01*
X4646Y8386D01*
X4961D01*
X4966Y8391D01*
X5005Y8383D01*
X5271D01*
X5319Y8393D01*
X5359Y8420D01*
X5387Y8461D01*
X5396Y8509D01*
Y8521D01*
X5447Y8532D01*
X5493Y8562D01*
X5565Y8634D01*
X5583Y8631D01*
X5645Y8544D01*
X5645Y8543D01*
X5662Y8459D01*
X5710Y8387D01*
X5720Y8381D01*
X5749Y8306D01*
X5702Y8234D01*
X5685Y8150D01*
X5702Y8065D01*
X5725Y8030D01*
X5743Y7972D01*
X5725Y7915D01*
X5702Y7880D01*
X5685Y7795D01*
X5702Y7711D01*
X5749Y7639D01*
X5821Y7591D01*
X5906Y7574D01*
X5990Y7591D01*
X6062Y7639D01*
X6109Y7711D01*
X6113Y7729D01*
X6123Y7735D01*
X6178Y7791D01*
X6267Y7768D01*
X6301Y7718D01*
X6372Y7670D01*
X6457Y7653D01*
X6541Y7670D01*
X6613Y7718D01*
X6661Y7790D01*
X6677Y7874D01*
X6661Y7958D01*
X6614Y8029D01*
X6712Y8127D01*
X7815D01*
X7851Y8048D01*
X7842Y8035D01*
X7832Y7987D01*
Y7894D01*
X8091D01*
Y7835D01*
X8150D01*
Y7557D01*
X8223D01*
X8262Y7564D01*
X8268Y7559D01*
X8583D01*
X8588Y7564D01*
X8627Y7557D01*
X8893D01*
X8941Y7566D01*
X8981Y7593D01*
X9009Y7634D01*
X9012Y7653D01*
X9091Y7645D01*
Y5352D01*
X9012Y5317D01*
X8997Y5327D01*
X8947Y5337D01*
X8494D01*
X8444Y5327D01*
X8402Y5299D01*
X8374Y5257D01*
X8364Y5207D01*
Y4911D01*
X8374Y4861D01*
X8402Y4819D01*
X8444Y4791D01*
X8494Y4781D01*
X8947D01*
X8997Y4791D01*
X9012Y4801D01*
X9091Y4766D01*
Y4094D01*
X9105Y4025D01*
X9144Y3967D01*
X9191Y3920D01*
Y3868D01*
X9199Y3826D01*
X9223Y3790D01*
X9259Y3766D01*
X9301Y3758D01*
X9518D01*
X9560Y3766D01*
X9596Y3790D01*
X9620Y3826D01*
X9628Y3868D01*
Y4045D01*
X9620Y4088D01*
X9596Y4123D01*
X9560Y4147D01*
X9518Y4156D01*
X9466D01*
X9452Y4169D01*
Y7815D01*
X9531Y7872D01*
X9532Y7872D01*
X9626D01*
Y8130D01*
X9685D01*
Y8189D01*
X9963D01*
Y8263D01*
X9955Y8302D01*
X9961Y8307D01*
Y8591D01*
X10162D01*
X10169Y8586D01*
X10246Y8571D01*
X10620D01*
X10697Y8586D01*
X10762Y8630D01*
X10806Y8695D01*
X10821Y8772D01*
X10806Y8848D01*
X10762Y8914D01*
X10697Y8957D01*
X10620Y8972D01*
X10246D01*
X10169Y8957D01*
X10162Y8952D01*
X9959D01*
X9953Y8980D01*
X9926Y9021D01*
X9886Y9048D01*
X9838Y9058D01*
X9532D01*
X9531Y9057D01*
X9452Y9114D01*
Y9766D01*
X9478Y9805D01*
X9492Y9874D01*
Y10787D01*
Y11500D01*
X9577Y11585D01*
X9616Y11643D01*
X9629Y11713D01*
Y12095D01*
X9690Y12163D01*
X9764D01*
Y12441D01*
X9882D01*
Y12163D01*
X9956D01*
X9995Y12171D01*
X10000Y12165D01*
X10233D01*
Y11968D01*
X10049D01*
Y11575D01*
X10817D01*
Y11968D01*
X10594D01*
Y12163D01*
X10625D01*
X10673Y12172D01*
X10681Y12178D01*
X10743Y12179D01*
X10777Y12155D01*
X10808Y12108D01*
X10880Y12060D01*
X10945Y12047D01*
Y7874D01*
X10236D01*
Y2362D01*
X100D01*
Y6684D01*
X167Y6708D01*
X179Y6709D01*
X350Y6538D01*
X342Y6496D01*
X353Y6438D01*
X386Y6390D01*
X435Y6357D01*
X492Y6346D01*
X689D01*
X747Y6357D01*
X795Y6390D01*
X828Y6438D01*
X829Y6445D01*
X910Y6445D01*
X914Y6425D01*
X944Y6379D01*
X1162Y6161D01*
X1208Y6130D01*
X1262Y6119D01*
X1787D01*
X2316Y5591D01*
X2289Y5506D01*
X2280Y5505D01*
X2239Y5477D01*
X2212Y5437D01*
X2202Y5389D01*
Y5315D01*
X2480D01*
Y5197D01*
X2202D01*
Y5123D01*
X2210Y5084D01*
X2205Y5079D01*
Y4764D01*
X2141Y4727D01*
X1815D01*
X1761Y4716D01*
X1734Y4698D01*
X1702Y4712D01*
X1614Y4723D01*
X1527Y4712D01*
X1445Y4678D01*
X1375Y4624D01*
X1322Y4555D01*
X1288Y4473D01*
X1277Y4386D01*
X1288Y4298D01*
X1322Y4217D01*
X1375Y4147D01*
X1445Y4094D01*
X1527Y4060D01*
X1614Y4048D01*
X1702Y4060D01*
X1783Y4094D01*
X1853Y4147D01*
X1906Y4217D01*
X1940Y4298D01*
X1952Y4386D01*
X1952Y4387D01*
X2003Y4446D01*
X2204D01*
X2212Y4406D01*
X2239Y4365D01*
X2254Y4355D01*
X2256Y4350D01*
Y4272D01*
X2254Y4267D01*
X2239Y4257D01*
X2212Y4216D01*
X2202Y4168D01*
Y4094D01*
X2480D01*
Y3976D01*
X2202D01*
Y3903D01*
X2210Y3864D01*
X2205Y3858D01*
Y3543D01*
X2141Y3507D01*
X1926D01*
X1906Y3555D01*
X1853Y3625D01*
X1783Y3678D01*
X1702Y3712D01*
X1614Y3723D01*
X1527Y3712D01*
X1445Y3678D01*
X1375Y3625D01*
X1322Y3555D01*
X1288Y3473D01*
X1277Y3386D01*
X1288Y3298D01*
X1322Y3217D01*
X1375Y3147D01*
X1445Y3094D01*
X1527Y3060D01*
X1614Y3048D01*
X1702Y3060D01*
X1783Y3094D01*
X1853Y3147D01*
X1906Y3217D01*
X1910Y3226D01*
X2204D01*
X2212Y3185D01*
X2239Y3145D01*
X2280Y3117D01*
X2328Y3108D01*
X2633D01*
X2681Y3117D01*
X2722Y3145D01*
X2732Y3160D01*
X2736Y3162D01*
X2815D01*
X2819Y3160D01*
X2830Y3145D01*
X2870Y3117D01*
X2918Y3108D01*
X3223D01*
X3271Y3117D01*
X3312Y3145D01*
X3339Y3185D01*
X3349Y3233D01*
Y3499D01*
X3341Y3538D01*
X3346Y3543D01*
Y3858D01*
X3341Y3864D01*
X3349Y3903D01*
Y4115D01*
X3564Y4330D01*
X3594Y4375D01*
X3605Y4429D01*
Y4862D01*
X3594Y4916D01*
X3564Y4962D01*
X3351Y5174D01*
X3354Y5253D01*
X4831D01*
X4835Y5230D01*
X4883Y5159D01*
X4955Y5111D01*
X5039Y5094D01*
X5124Y5111D01*
X5195Y5159D01*
X5243Y5230D01*
X5248Y5253D01*
X5333Y5279D01*
X5411Y5201D01*
Y4911D01*
X5421Y4861D01*
X5449Y4819D01*
X5491Y4791D01*
X5541Y4781D01*
X5831D01*
X6560Y4053D01*
X6548Y4024D01*
X6536Y3937D01*
X6548Y3850D01*
X6582Y3768D01*
X6635Y3698D01*
X6705Y3645D01*
X6787Y3611D01*
X6874Y3599D01*
X6961Y3611D01*
X7043Y3645D01*
X7113Y3698D01*
X7166Y3768D01*
X7200Y3850D01*
X7212Y3937D01*
X7200Y4024D01*
X7166Y4106D01*
X7113Y4176D01*
X7043Y4229D01*
X6961Y4263D01*
X6874Y4275D01*
X6787Y4263D01*
X6758Y4251D01*
X6120Y4890D01*
X6125Y4911D01*
Y5207D01*
X6163Y5253D01*
X8031D01*
X8085Y5264D01*
X8131Y5294D01*
X8525Y5688D01*
X8543Y5685D01*
X8628Y5702D01*
X8699Y5749D01*
X8747Y5821D01*
X8764Y5906D01*
X8747Y5990D01*
X8699Y6062D01*
X8628Y6109D01*
X8543Y6126D01*
X8459Y6109D01*
X8387Y6062D01*
X8339Y5990D01*
X8323Y5906D01*
X8326Y5887D01*
X7973Y5534D01*
X5754D01*
X5401Y5887D01*
X5356Y5917D01*
X5302Y5928D01*
X2655D01*
X1731Y6851D01*
X1724Y6856D01*
X1695Y6949D01*
X1457D01*
Y7008D01*
X1398D01*
Y7158D01*
X1358D01*
X1301Y7147D01*
X1263Y7121D01*
X1219Y7134D01*
X1184Y7154D01*
Y7248D01*
X1225Y7320D01*
X1491D01*
X1539Y7330D01*
X1580Y7357D01*
X1607Y7398D01*
X1617Y7446D01*
Y7751D01*
X1607Y7799D01*
X1580Y7840D01*
X1558Y7854D01*
Y8913D01*
X1714Y9068D01*
X1744Y9114D01*
X1755Y9168D01*
Y9391D01*
X1771Y9407D01*
X2308D01*
X2313Y9380D01*
X2353Y9321D01*
X2411Y9282D01*
X2480Y9268D01*
X2913D01*
X2983Y9282D01*
X3041Y9321D01*
X3080Y9380D01*
X3094Y9449D01*
Y9646D01*
X3080Y9715D01*
X3041Y9773D01*
X2983Y9813D01*
X2913Y9826D01*
X2741D01*
X2713Y9879D01*
X2706Y9905D01*
X2721Y9980D01*
X2704Y10065D01*
X2684Y10095D01*
X2726Y10174D01*
X2913D01*
X2983Y10187D01*
X3041Y10227D01*
X3080Y10285D01*
X3094Y10354D01*
Y10394D01*
X2300D01*
Y10354D01*
X2313Y10285D01*
X2353Y10227D01*
X2345Y10137D01*
X2344Y10136D01*
X2296Y10065D01*
X2279Y9980D01*
X2280Y9978D01*
X2186Y9885D01*
X1737D01*
X1707Y9940D01*
X1702Y9963D01*
X1717Y10039D01*
X1700Y10124D01*
X1652Y10195D01*
X1581Y10243D01*
X1558Y10248D01*
Y11040D01*
X1795Y11277D01*
X3011D01*
X3065Y11288D01*
X3111Y11318D01*
X3249Y11456D01*
X3279Y11502D01*
X3290Y11556D01*
Y11958D01*
X3279Y12012D01*
X3249Y12058D01*
X2984Y12323D01*
X3158Y12497D01*
X3541D01*
X3815Y12223D01*
D02*
G37*
G36*
X8624Y10988D02*
X8663Y10922D01*
X8659Y10901D01*
Y10635D01*
X8667Y10596D01*
X8661Y10591D01*
Y10276D01*
X8667Y10270D01*
X8659Y10231D01*
Y10157D01*
X8937D01*
Y10098D01*
X8996D01*
Y9840D01*
X9010D01*
X9019Y9830D01*
X9046Y9759D01*
X9025Y9734D01*
X8957D01*
Y9478D01*
X8898D01*
Y9419D01*
X8622D01*
Y9326D01*
X8543Y9293D01*
X8425Y9411D01*
Y9734D01*
X8169D01*
X8164Y9741D01*
X8206Y9820D01*
X8228D01*
X8282Y9831D01*
X8328Y9861D01*
X8358Y9907D01*
X8365Y9941D01*
X8369Y9961D01*
X8366Y10020D01*
X8366Y10020D01*
Y10217D01*
Y10610D01*
Y11001D01*
X8609D01*
X8624Y10988D01*
D02*
G37*
G36*
X5359Y15076D02*
X5413D01*
X5423Y15069D01*
X5492Y15056D01*
X5766D01*
X5807Y14994D01*
X5775Y14924D01*
X5674D01*
X5626Y14914D01*
X5586Y14887D01*
X5558Y14846D01*
X5549Y14798D01*
Y14493D01*
X5558Y14445D01*
X5586Y14404D01*
X5626Y14377D01*
X5674Y14368D01*
X5924D01*
X5928Y14365D01*
X5961Y14333D01*
X5983Y14297D01*
X5983Y14292D01*
X5982Y14286D01*
Y14213D01*
X6260D01*
Y14094D01*
X5982D01*
Y14021D01*
X5990Y13982D01*
X5984Y13976D01*
Y13922D01*
X5911Y13892D01*
X5728Y14076D01*
X5683Y14106D01*
X5629Y14117D01*
X5536D01*
X5239Y14414D01*
Y14519D01*
X5228Y14573D01*
X5198Y14619D01*
X5042Y14775D01*
Y14995D01*
X5041Y15000D01*
X5096Y15079D01*
X5315D01*
X5320Y15084D01*
X5359Y15076D01*
D02*
G37*
G36*
X6350Y17300D02*
X6345Y17295D01*
X6312Y17213D01*
X6300Y17126D01*
X6312Y17039D01*
X6345Y16957D01*
X6399Y16887D01*
X6469Y16834D01*
X6497Y16822D01*
Y16330D01*
X6481Y16322D01*
X6419Y16310D01*
X6376Y16365D01*
X6307Y16418D01*
X6225Y16452D01*
X6138Y16464D01*
X6050Y16452D01*
X5969Y16418D01*
X5899Y16365D01*
X5845Y16295D01*
X5812Y16213D01*
X5800Y16126D01*
X5812Y16039D01*
X5845Y15957D01*
X5899Y15887D01*
X5969Y15834D01*
X6050Y15800D01*
X6138Y15788D01*
X6159Y15791D01*
X6237Y15723D01*
Y15579D01*
X6176Y15514D01*
X5910D01*
X5862Y15505D01*
X5829Y15482D01*
X5781Y15494D01*
X5772Y15498D01*
X5750Y15511D01*
X5741Y15555D01*
X5714Y15596D01*
X5673Y15623D01*
X5625Y15632D01*
X5441D01*
X5062Y16011D01*
Y16313D01*
X5062Y16313D01*
X5050Y16374D01*
X5035Y16397D01*
X5035Y16404D01*
X5069Y16474D01*
X5073Y16478D01*
X5137Y16486D01*
X5228Y16524D01*
X5306Y16584D01*
X5366Y16662D01*
X5404Y16753D01*
X5417Y16850D01*
X5404Y16948D01*
X5366Y17039D01*
X5306Y17117D01*
X5228Y17177D01*
X5137Y17215D01*
X5039Y17228D01*
X4942Y17215D01*
X4851Y17177D01*
X4773Y17117D01*
X4713Y17039D01*
X4678Y16955D01*
X4669Y16946D01*
X4592Y16919D01*
X4570Y16935D01*
Y17379D01*
X6311D01*
X6350Y17300D01*
D02*
G37*
G36*
X4249Y16821D02*
Y16805D01*
X4249Y16805D01*
X4261Y16744D01*
X4296Y16692D01*
X4741Y16246D01*
Y15945D01*
X4741Y15945D01*
X4753Y15883D01*
X4788Y15831D01*
X4908Y15711D01*
X4882Y15647D01*
Y15354D01*
X4764D01*
Y15632D01*
X4690D01*
X4642Y15623D01*
X4601Y15596D01*
X4574Y15555D01*
X4565Y15507D01*
Y15202D01*
X4566Y15197D01*
X4510Y15118D01*
X4291D01*
X4286Y15113D01*
X4247Y15121D01*
X3981D01*
X3933Y15111D01*
X3893Y15084D01*
X3865Y15043D01*
X3856Y14995D01*
Y14690D01*
X3865Y14642D01*
X3893Y14601D01*
Y14533D01*
X3865Y14492D01*
X3856Y14444D01*
Y14139D01*
X3865Y14091D01*
X3893Y14050D01*
X3865Y13980D01*
X3856Y13932D01*
Y13839D01*
X4114D01*
Y13720D01*
X3856D01*
Y13627D01*
X3865Y13579D01*
X3893Y13538D01*
X3893Y13470D01*
X3865Y13429D01*
X3856Y13381D01*
Y13287D01*
X4114D01*
Y13169D01*
X3856D01*
Y13076D01*
X3865Y13028D01*
X3893Y12987D01*
X3893Y12918D01*
X3865Y12878D01*
X3856Y12830D01*
Y12683D01*
X3783Y12653D01*
X3699Y12737D01*
X3653Y12768D01*
X3600Y12778D01*
X3100D01*
X3046Y12768D01*
X3001Y12737D01*
X2727Y12463D01*
X2638D01*
Y12964D01*
X2651Y12966D01*
X2729Y13019D01*
X2782Y13097D01*
X2800Y13189D01*
X2782Y13281D01*
X2729Y13359D01*
X2651Y13411D01*
X2559Y13430D01*
X2467Y13411D01*
X2389Y13359D01*
X2336D01*
X2258Y13411D01*
X2165Y13430D01*
X2151Y13427D01*
X2109Y13455D01*
X2047Y13468D01*
X2047Y13468D01*
X933D01*
X731Y13669D01*
Y15774D01*
X736Y15774D01*
X798Y15800D01*
X852Y15841D01*
X893Y15895D01*
X919Y15957D01*
X927Y16024D01*
X919Y16090D01*
X893Y16153D01*
X852Y16206D01*
X798Y16247D01*
X767Y16260D01*
X741Y16346D01*
X804Y16409D01*
X1172D01*
X1211Y16330D01*
X1196Y16310D01*
X1162Y16229D01*
X1151Y16142D01*
X1162Y16054D01*
X1196Y15973D01*
X1250Y15903D01*
X1319Y15849D01*
X1401Y15816D01*
X1488Y15804D01*
X1576Y15816D01*
X1657Y15849D01*
X1727Y15903D01*
X1780Y15973D01*
X1814Y16054D01*
X1826Y16142D01*
X1814Y16229D01*
X1780Y16310D01*
X1766Y16330D01*
X1804Y16409D01*
X2172D01*
X2211Y16330D01*
X2196Y16310D01*
X2162Y16229D01*
X2151Y16142D01*
X2162Y16054D01*
X2196Y15973D01*
X2250Y15903D01*
X2319Y15849D01*
X2401Y15816D01*
X2488Y15804D01*
X2576Y15816D01*
X2657Y15849D01*
X2727Y15903D01*
X2781Y15973D01*
X2814Y16054D01*
X2826Y16142D01*
X2814Y16229D01*
X2781Y16310D01*
X2766Y16330D01*
X2804Y16409D01*
X3172D01*
X3211Y16330D01*
X3196Y16310D01*
X3162Y16229D01*
X3151Y16142D01*
X3162Y16054D01*
X3196Y15973D01*
X3250Y15903D01*
X3319Y15849D01*
X3401Y15816D01*
X3488Y15804D01*
X3576Y15816D01*
X3657Y15849D01*
X3727Y15903D01*
X3780Y15973D01*
X3814Y16054D01*
X3826Y16142D01*
X3814Y16229D01*
X3780Y16310D01*
X3727Y16380D01*
X3696Y16404D01*
X3689Y16423D01*
X3688Y16498D01*
X3690Y16503D01*
X3992Y16805D01*
X4076Y16816D01*
X4157Y16849D01*
X4170Y16860D01*
X4249Y16821D01*
D02*
G37*
G36*
X9567Y16388D02*
X9557Y16380D01*
X9503Y16310D01*
X9469Y16229D01*
X9458Y16142D01*
X9469Y16054D01*
X9503Y15973D01*
X9557Y15903D01*
X9567Y15895D01*
Y15551D01*
X10945D01*
Y14983D01*
X10899Y14973D01*
X10860Y14947D01*
X10834Y14908D01*
X10824Y14862D01*
Y14803D01*
X11063D01*
Y14685D01*
X10824D01*
Y14626D01*
X10834Y14580D01*
X10860Y14541D01*
X10866Y14537D01*
Y14282D01*
X10860Y14278D01*
X10834Y14239D01*
X10824Y14193D01*
Y13957D01*
X10834Y13911D01*
X10860Y13872D01*
X10882Y13856D01*
Y13737D01*
X10862Y13733D01*
X10822Y13706D01*
X10795Y13665D01*
X10785Y13617D01*
Y13351D01*
X10793Y13312D01*
X10787Y13307D01*
Y12992D01*
X10793Y12987D01*
X10785Y12948D01*
Y12792D01*
X10690Y12698D01*
X10673Y12709D01*
X10625Y12719D01*
X10441D01*
X10079Y13080D01*
X10021Y13120D01*
X9952Y13133D01*
X9244D01*
X9176Y13161D01*
Y14161D01*
X8831D01*
X8758Y14169D01*
X8737Y14183D01*
X8709Y14189D01*
X8709Y14189D01*
X8671Y14196D01*
X8350D01*
Y14377D01*
X8350Y14377D01*
X8391Y14404D01*
X8418Y14445D01*
X8428Y14493D01*
Y14798D01*
X8418Y14846D01*
X8396Y14879D01*
X8404Y14914D01*
X8426Y14958D01*
X8617D01*
X8656Y14966D01*
X8661Y14961D01*
X8976D01*
X8982Y14966D01*
X9021Y14958D01*
X9094D01*
Y15236D01*
Y15514D01*
X9021D01*
X8982Y15506D01*
X8976Y15512D01*
X8802D01*
Y16831D01*
X8790Y16892D01*
X8755Y16944D01*
X8755Y16944D01*
X8156Y17543D01*
X8186Y17616D01*
X9567D01*
Y16388D01*
D02*
G37*
%LPC*%
G36*
X3094Y8189D02*
X2756D01*
Y7969D01*
X2913D01*
X2983Y7983D01*
X3041Y8022D01*
X3080Y8080D01*
X3094Y8150D01*
Y8189D01*
D02*
G37*
G36*
X9963Y8071D02*
X9744D01*
Y7872D01*
X9838D01*
X9886Y7881D01*
X9926Y7908D01*
X9953Y7949D01*
X9963Y7997D01*
Y8071D01*
D02*
G37*
G36*
X2638Y8189D02*
X2300D01*
Y8150D01*
X2313Y8080D01*
X2353Y8022D01*
X2411Y7983D01*
X2480Y7969D01*
X2638D01*
Y8189D01*
D02*
G37*
G36*
X10374Y8213D02*
X10057D01*
X10061Y8195D01*
X10104Y8130D01*
X10169Y8086D01*
X10246Y8071D01*
X10374D01*
Y8213D01*
D02*
G37*
G36*
X2913Y8527D02*
X2756D01*
Y8307D01*
X3094D01*
Y8346D01*
X3080Y8416D01*
X3041Y8474D01*
X2983Y8513D01*
X2913Y8527D01*
D02*
G37*
G36*
X2638D02*
X2480D01*
X2411Y8513D01*
X2353Y8474D01*
X2313Y8416D01*
X2300Y8346D01*
Y8307D01*
X2638D01*
Y8527D01*
D02*
G37*
G36*
X10809Y8213D02*
X10492D01*
Y8071D01*
X10620D01*
X10697Y8086D01*
X10762Y8130D01*
X10806Y8195D01*
X10809Y8213D01*
D02*
G37*
G36*
X5374Y3275D02*
X5287Y3263D01*
X5205Y3229D01*
X5135Y3176D01*
X5082Y3106D01*
X5048Y3024D01*
X5036Y2937D01*
X5048Y2850D01*
X5082Y2768D01*
X5135Y2698D01*
X5205Y2645D01*
X5287Y2611D01*
X5374Y2599D01*
X5461Y2611D01*
X5543Y2645D01*
X5613Y2698D01*
X5666Y2768D01*
X5700Y2850D01*
X5712Y2937D01*
X5700Y3024D01*
X5666Y3106D01*
X5613Y3176D01*
X5543Y3229D01*
X5461Y3263D01*
X5374Y3275D01*
D02*
G37*
G36*
X6374D02*
X6287Y3263D01*
X6205Y3229D01*
X6135Y3176D01*
X6082Y3106D01*
X6048Y3024D01*
X6036Y2937D01*
X6048Y2850D01*
X6082Y2768D01*
X6135Y2698D01*
X6205Y2645D01*
X6287Y2611D01*
X6374Y2599D01*
X6461Y2611D01*
X6543Y2645D01*
X6613Y2698D01*
X6666Y2768D01*
X6700Y2850D01*
X6712Y2937D01*
X6700Y3024D01*
X6666Y3106D01*
X6613Y3176D01*
X6543Y3229D01*
X6461Y3263D01*
X6374Y3275D01*
D02*
G37*
G36*
X906Y3212D02*
X808Y3199D01*
X717Y3161D01*
X639Y3101D01*
X579Y3023D01*
X541Y2932D01*
X528Y2835D01*
X541Y2737D01*
X579Y2646D01*
X639Y2568D01*
X717Y2508D01*
X808Y2470D01*
X906Y2457D01*
X1003Y2470D01*
X1094Y2508D01*
X1172Y2568D01*
X1232Y2646D01*
X1270Y2737D01*
X1283Y2835D01*
X1270Y2932D01*
X1232Y3023D01*
X1172Y3101D01*
X1094Y3161D01*
X1003Y3199D01*
X906Y3212D01*
D02*
G37*
G36*
X4374Y3275D02*
X4287Y3263D01*
X4205Y3229D01*
X4135Y3176D01*
X4082Y3106D01*
X4048Y3024D01*
X4036Y2937D01*
X4048Y2850D01*
X4082Y2768D01*
X4135Y2698D01*
X4205Y2645D01*
X4287Y2611D01*
X4374Y2599D01*
X4461Y2611D01*
X4543Y2645D01*
X4613Y2698D01*
X4666Y2768D01*
X4700Y2850D01*
X4712Y2937D01*
X4700Y3024D01*
X4666Y3106D01*
X4613Y3176D01*
X4543Y3229D01*
X4461Y3263D01*
X4374Y3275D01*
D02*
G37*
G36*
X8425Y3606D02*
X8328Y3593D01*
X8237Y3555D01*
X8158Y3495D01*
X8098Y3417D01*
X8061Y3326D01*
X8048Y3228D01*
X8061Y3131D01*
X8098Y3040D01*
X8147Y2976D01*
X8133Y2925D01*
X8113Y2897D01*
X7746D01*
X7712Y2937D01*
X7700Y3024D01*
X7666Y3106D01*
X7613Y3176D01*
X7543Y3229D01*
X7461Y3263D01*
X7374Y3275D01*
X7287Y3263D01*
X7205Y3229D01*
X7135Y3176D01*
X7082Y3106D01*
X7048Y3024D01*
X7036Y2937D01*
X7048Y2850D01*
X7082Y2768D01*
X7135Y2698D01*
X7205Y2645D01*
X7287Y2611D01*
X7374Y2599D01*
X7447Y2609D01*
X7467Y2589D01*
X7525Y2550D01*
X7594Y2536D01*
X9154D01*
X9223Y2550D01*
X9281Y2589D01*
X9466Y2773D01*
X9518D01*
X9560Y2782D01*
X9596Y2806D01*
X9620Y2842D01*
X9628Y2884D01*
Y3061D01*
X9620Y3103D01*
X9596Y3139D01*
X9560Y3163D01*
X9518Y3171D01*
X9301D01*
X9259Y3163D01*
X9223Y3139D01*
X9199Y3103D01*
X9191Y3061D01*
Y3009D01*
X9079Y2897D01*
X8737D01*
X8718Y2925D01*
X8703Y2976D01*
X8752Y3040D01*
X8790Y3131D01*
X8802Y3228D01*
X8790Y3326D01*
X8752Y3417D01*
X8692Y3495D01*
X8614Y3555D01*
X8523Y3593D01*
X8425Y3606D01*
D02*
G37*
G36*
X1555Y7158D02*
X1516D01*
Y7067D01*
X1693D01*
X1662Y7114D01*
X1613Y7147D01*
X1555Y7158D01*
D02*
G37*
G36*
X8031Y7776D02*
X7832D01*
Y7682D01*
X7842Y7634D01*
X7869Y7593D01*
X7910Y7566D01*
X7958Y7557D01*
X8031D01*
Y7776D01*
D02*
G37*
G36*
X4874Y4275D02*
X4787Y4263D01*
X4705Y4229D01*
X4635Y4176D01*
X4582Y4106D01*
X4548Y4024D01*
X4536Y3937D01*
X4548Y3850D01*
X4582Y3768D01*
X4635Y3698D01*
X4705Y3645D01*
X4787Y3611D01*
X4874Y3599D01*
X4961Y3611D01*
X5043Y3645D01*
X5113Y3698D01*
X5166Y3768D01*
X5200Y3850D01*
X5212Y3937D01*
X5200Y4024D01*
X5166Y4106D01*
X5113Y4176D01*
X5043Y4229D01*
X4961Y4263D01*
X4874Y4275D01*
D02*
G37*
G36*
X5874D02*
X5787Y4263D01*
X5705Y4229D01*
X5635Y4176D01*
X5582Y4106D01*
X5548Y4024D01*
X5536Y3937D01*
X5548Y3850D01*
X5582Y3768D01*
X5635Y3698D01*
X5705Y3645D01*
X5787Y3611D01*
X5874Y3599D01*
X5961Y3611D01*
X6043Y3645D01*
X6113Y3698D01*
X6166Y3768D01*
X6200Y3850D01*
X6212Y3937D01*
X6200Y4024D01*
X6166Y4106D01*
X6113Y4176D01*
X6043Y4229D01*
X5961Y4263D01*
X5874Y4275D01*
D02*
G37*
G36*
X10374Y8472D02*
X10246D01*
X10169Y8457D01*
X10104Y8414D01*
X10061Y8348D01*
X10057Y8331D01*
X10374D01*
Y8472D01*
D02*
G37*
G36*
Y11213D02*
X10057D01*
X10061Y11195D01*
X10104Y11130D01*
X10169Y11086D01*
X10246Y11071D01*
X10374D01*
Y11213D01*
D02*
G37*
G36*
X10809D02*
X10492D01*
Y11071D01*
X10620D01*
X10697Y11086D01*
X10762Y11130D01*
X10806Y11195D01*
X10809Y11213D01*
D02*
G37*
G36*
X2638Y10732D02*
X2480D01*
X2411Y10718D01*
X2353Y10679D01*
X2313Y10620D01*
X2300Y10551D01*
Y10512D01*
X2638D01*
Y10732D01*
D02*
G37*
G36*
X2913D02*
X2756D01*
Y10512D01*
X3094D01*
Y10551D01*
X3080Y10620D01*
X3041Y10679D01*
X2983Y10718D01*
X2913Y10732D01*
D02*
G37*
G36*
X9286Y15514D02*
X9213D01*
Y15295D01*
X9412D01*
Y15389D01*
X9402Y15437D01*
X9375Y15477D01*
X9334Y15505D01*
X9286Y15514D01*
D02*
G37*
G36*
X9412Y15177D02*
X9213D01*
Y14958D01*
X9286D01*
X9334Y14968D01*
X9375Y14995D01*
X9402Y15036D01*
X9412Y15084D01*
Y15177D01*
D02*
G37*
G36*
X10374Y11472D02*
X10246D01*
X10169Y11457D01*
X10104Y11414D01*
X10061Y11348D01*
X10057Y11331D01*
X10374D01*
Y11472D01*
D02*
G37*
G36*
X10620D02*
X10492D01*
Y11331D01*
X10809D01*
X10806Y11348D01*
X10762Y11414D01*
X10697Y11457D01*
X10620Y11472D01*
D02*
G37*
G36*
X4134Y9491D02*
X4060D01*
X4012Y9481D01*
X3971Y9454D01*
X3944Y9413D01*
X3935Y9365D01*
Y9272D01*
X4134D01*
Y9491D01*
D02*
G37*
G36*
X8839Y9734D02*
X8622D01*
Y9537D01*
X8839D01*
Y9734D01*
D02*
G37*
G36*
X10620Y8472D02*
X10492D01*
Y8331D01*
X10809D01*
X10806Y8348D01*
X10762Y8414D01*
X10697Y8457D01*
X10620Y8472D01*
D02*
G37*
G36*
X10472Y9985D02*
X10411Y9972D01*
X10246D01*
X10169Y9957D01*
X10104Y9914D01*
X10061Y9848D01*
X10045Y9772D01*
X10061Y9695D01*
X10104Y9630D01*
X10169Y9586D01*
X10246Y9571D01*
X10308D01*
X10331Y9551D01*
X10311Y9491D01*
X10294Y9472D01*
X10246D01*
X10169Y9457D01*
X10104Y9414D01*
X10061Y9348D01*
X10045Y9272D01*
X10061Y9195D01*
X10104Y9130D01*
X10169Y9086D01*
X10246Y9071D01*
X10470D01*
X10472Y9071D01*
X10474Y9071D01*
X10620D01*
X10697Y9086D01*
X10762Y9130D01*
X10806Y9195D01*
X10821Y9272D01*
X10806Y9348D01*
X10762Y9414D01*
X10697Y9457D01*
X10640Y9468D01*
X10609Y9523D01*
X10634Y9574D01*
X10697Y9586D01*
X10762Y9630D01*
X10806Y9695D01*
X10821Y9772D01*
X10806Y9848D01*
X10762Y9914D01*
X10697Y9957D01*
X10620Y9972D01*
X10534D01*
X10472Y9985D01*
D02*
G37*
G36*
X8878Y10039D02*
X8659D01*
Y9966D01*
X8669Y9918D01*
X8696Y9877D01*
X8736Y9850D01*
X8784Y9840D01*
X8878D01*
Y10039D01*
D02*
G37*
G36*
X10157Y11008D02*
X10073Y10991D01*
X10001Y10944D01*
X9954Y10872D01*
X9937Y10787D01*
X9954Y10703D01*
X10001Y10631D01*
X10073Y10583D01*
X10157Y10567D01*
X10170Y10569D01*
X10186Y10559D01*
X10188Y10526D01*
X10178Y10471D01*
X10119Y10432D01*
X10110Y10417D01*
X10104Y10414D01*
X10061Y10348D01*
X10045Y10272D01*
X10061Y10195D01*
X10104Y10130D01*
X10119Y10119D01*
X10119Y10119D01*
X10191Y10072D01*
X10276Y10055D01*
X10357Y10071D01*
X10620D01*
X10697Y10086D01*
X10762Y10130D01*
X10806Y10195D01*
X10821Y10272D01*
X10806Y10348D01*
X10762Y10414D01*
X10697Y10457D01*
X10620Y10472D01*
X10371D01*
X10360Y10480D01*
X10321Y10487D01*
X10297Y10498D01*
X10304Y10571D01*
X10620D01*
X10697Y10586D01*
X10762Y10630D01*
X10806Y10695D01*
X10821Y10772D01*
X10806Y10848D01*
X10762Y10914D01*
X10697Y10957D01*
X10620Y10972D01*
X10270D01*
X10242Y10991D01*
X10157Y11008D01*
D02*
G37*
G36*
X3878Y10000D02*
X3659D01*
Y9926D01*
X3669Y9878D01*
X3696Y9837D01*
X3736Y9810D01*
X3784Y9801D01*
X3878D01*
Y10000D01*
D02*
G37*
G36*
X4980Y9902D02*
X4665D01*
Y9823D01*
X4980D01*
Y9902D01*
D02*
G37*
%LPD*%
D10*
X8937Y11988D02*
D03*
Y11319D02*
D03*
X11260Y5531D02*
D03*
Y4862D02*
D03*
Y4311D02*
D03*
Y3642D02*
D03*
Y3091D02*
D03*
Y2421D02*
D03*
X10669Y5217D02*
D03*
Y5886D02*
D03*
Y3996D02*
D03*
Y4665D02*
D03*
Y2776D02*
D03*
Y3445D02*
D03*
X11063Y13484D02*
D03*
Y12815D02*
D03*
X9685Y8130D02*
D03*
Y8799D02*
D03*
X8937Y10098D02*
D03*
Y10768D02*
D03*
X6260Y14154D02*
D03*
Y13484D02*
D03*
X3937Y10059D02*
D03*
Y10728D02*
D03*
X3071Y5256D02*
D03*
Y4587D02*
D03*
Y4035D02*
D03*
Y3366D02*
D03*
X2480Y4587D02*
D03*
Y5256D02*
D03*
Y3366D02*
D03*
Y4035D02*
D03*
X13346Y8878D02*
D03*
Y8209D02*
D03*
X13307Y11240D02*
D03*
Y11909D02*
D03*
D11*
X4114Y14291D02*
D03*
X4783D02*
D03*
X4114Y14843D02*
D03*
X4783D02*
D03*
X8760Y7835D02*
D03*
X8091D02*
D03*
X6909Y8661D02*
D03*
X7579D02*
D03*
X5138D02*
D03*
X4469D02*
D03*
X4862Y9213D02*
D03*
X4193D02*
D03*
X4114Y12677D02*
D03*
X4783D02*
D03*
X4114Y13228D02*
D03*
X4783D02*
D03*
X4114Y13780D02*
D03*
X4783D02*
D03*
X5807Y14646D02*
D03*
X6476D02*
D03*
X6713Y15236D02*
D03*
X6043D02*
D03*
X9154D02*
D03*
X8484D02*
D03*
X5492Y15354D02*
D03*
X4823D02*
D03*
X7933Y15236D02*
D03*
X7264D02*
D03*
X7500Y14646D02*
D03*
X8169D02*
D03*
X10492Y12441D02*
D03*
X9823D02*
D03*
X1358Y7598D02*
D03*
X689D02*
D03*
D12*
X11063Y14744D02*
D03*
Y14075D02*
D03*
D13*
X8150Y8652D02*
D03*
Y9478D02*
D03*
X8898D02*
D03*
Y8652D02*
D03*
D14*
X9409Y3957D02*
D03*
Y2972D02*
D03*
D15*
X7992Y9961D02*
D03*
D16*
Y10157D02*
D03*
Y10354D02*
D03*
Y10551D02*
D03*
Y10748D02*
D03*
Y10945D02*
D03*
Y11142D02*
D03*
Y11339D02*
D03*
Y11535D02*
D03*
Y11732D02*
D03*
Y11929D02*
D03*
Y12126D02*
D03*
X4606D02*
D03*
Y11929D02*
D03*
Y11732D02*
D03*
Y11535D02*
D03*
Y11339D02*
D03*
Y11142D02*
D03*
Y10945D02*
D03*
Y10748D02*
D03*
Y10551D02*
D03*
Y10354D02*
D03*
Y10157D02*
D03*
Y9961D02*
D03*
D17*
X7382Y12736D02*
D03*
X7185D02*
D03*
X6988D02*
D03*
X6791D02*
D03*
X6594D02*
D03*
X6398D02*
D03*
X6201D02*
D03*
X6004D02*
D03*
X5807D02*
D03*
X5610D02*
D03*
X5413D02*
D03*
X5217D02*
D03*
Y9350D02*
D03*
X5413D02*
D03*
X5610D02*
D03*
X5807D02*
D03*
X6004D02*
D03*
X6201D02*
D03*
X6398D02*
D03*
X6594D02*
D03*
X6791D02*
D03*
X6988D02*
D03*
X7185D02*
D03*
X7382D02*
D03*
D18*
X9547Y13661D02*
D03*
X8406D02*
D03*
D19*
X2697Y11752D02*
D03*
Y10453D02*
D03*
X768D02*
D03*
Y11752D02*
D03*
X2697Y9547D02*
D03*
Y8248D02*
D03*
X768D02*
D03*
Y9547D02*
D03*
D20*
X591Y7008D02*
D03*
Y6496D02*
D03*
X1457Y7008D02*
D03*
Y6752D02*
D03*
D21*
Y6496D02*
D03*
D22*
X12559Y8272D02*
D03*
Y8772D02*
D03*
Y9272D02*
D03*
Y9772D02*
D03*
Y10272D02*
D03*
Y10772D02*
D03*
Y11272D02*
D03*
Y11772D02*
D03*
X10433Y8272D02*
D03*
Y8772D02*
D03*
Y9272D02*
D03*
Y9772D02*
D03*
Y10272D02*
D03*
Y10772D02*
D03*
Y11272D02*
D03*
D23*
Y11772D02*
D03*
D24*
X551Y12707D02*
D03*
X1457D02*
D03*
X2362D02*
D03*
D25*
X1457Y15010D02*
D03*
D26*
X8720Y5059D02*
D03*
Y6831D02*
D03*
X5768D02*
D03*
Y5059D02*
D03*
D27*
X12559Y11772D02*
X12992D01*
X13169D02*
X13307Y11909D01*
X12992Y11772D02*
X13169D01*
X12953Y8272D02*
X13283D01*
X12559D02*
X12563Y8268D01*
X12953D01*
X12992Y8772D02*
X13240D01*
X12559D02*
X12567Y8780D01*
X12992D01*
X276Y12431D02*
X551Y12707D01*
X9752Y8772D02*
X10433D01*
X276Y11752D02*
Y12431D01*
X10354Y14409D02*
Y14646D01*
X10453Y14744D01*
X11063D01*
Y13484D02*
Y14075D01*
X10413Y11791D02*
Y12441D01*
Y12491D01*
X10689Y12441D02*
X11063Y12815D01*
X10492Y12441D02*
X10689D01*
X7933Y15236D02*
X7953Y15256D01*
X6024Y15256D02*
X6043Y15236D01*
X12362Y15962D02*
Y17075D01*
Y15962D02*
X13307Y15017D01*
X12886Y11272D02*
X13276D01*
X13307Y11909D02*
Y15017D01*
X12295Y17142D02*
X12362Y17075D01*
X9272Y4094D02*
Y8031D01*
X9272Y8031D02*
X9272Y8031D01*
X8976Y8031D02*
X9272D01*
X9272Y4094D02*
X9409Y3957D01*
X9154Y2717D02*
X9409Y2972D01*
X7594Y2717D02*
X9154D01*
X7374Y2937D02*
X7594Y2717D01*
X9272Y8031D02*
Y8789D01*
X9281Y8799D01*
X9724D02*
X9752Y8772D01*
X13276Y11272D02*
X13307Y11240D01*
X13283Y8272D02*
X13346Y8209D01*
X13240Y8772D02*
X13346Y8878D01*
X10413Y11791D02*
X10433Y11772D01*
X8169Y13937D02*
X8445Y13661D01*
X8169Y13937D02*
Y14646D01*
X276Y9547D02*
X768D01*
X276D02*
Y11752D01*
X768D01*
X7933Y15236D02*
X8484D01*
X7933Y14882D02*
X8169Y14646D01*
X7933Y14882D02*
Y15236D01*
X5807Y14646D02*
X6043Y14882D01*
Y15236D01*
X8406Y13524D02*
Y13661D01*
Y13524D02*
X8976Y12953D01*
X9952D01*
X10413Y12491D01*
X9449Y11713D02*
Y12953D01*
X9272Y8789D02*
Y9834D01*
X9311Y9874D01*
Y11575D02*
X9449Y11713D01*
X9281Y8799D02*
X9685D01*
X9724D01*
X8937Y11949D02*
Y11988D01*
Y11949D02*
X9311Y11575D01*
X8937Y10768D02*
X9291D01*
X9311Y10787D01*
Y9874D02*
Y10787D01*
Y11575D01*
X5492Y15236D02*
X6043D01*
D28*
X3600Y12638D02*
X3915Y12323D01*
X3100Y12638D02*
X3600D01*
X3386Y12913D02*
Y12953D01*
Y12913D02*
X3425Y12874D01*
X2785Y12323D02*
X3100Y12638D01*
X4783Y14764D02*
X4854D01*
X5098Y14519D01*
Y14356D02*
Y14519D01*
Y14356D02*
X5478Y13976D01*
X5629D01*
X5913Y13693D01*
X5925D01*
X5709Y13214D02*
Y13618D01*
X4885Y14291D02*
X5397Y13780D01*
X4783Y14291D02*
X4885D01*
X5709Y13214D02*
X5807Y13116D01*
X5547Y13780D02*
X5709Y13618D01*
X5397Y13780D02*
X5547D01*
X5118Y13780D02*
X5413Y13484D01*
X4783Y13780D02*
X5118D01*
X5925Y13276D02*
X6004Y13197D01*
X5925Y13276D02*
Y13693D01*
X5807Y12736D02*
Y13116D01*
X6004Y12736D02*
Y13197D01*
X5413Y12736D02*
Y13484D01*
X5118Y13032D02*
X5217Y12933D01*
Y12736D02*
Y12933D01*
X6024Y12201D02*
X6201Y12378D01*
X6398Y12736D02*
Y13366D01*
X6358Y13406D02*
X6398Y13366D01*
X6260Y13406D02*
X6358D01*
X4980Y13032D02*
X5118D01*
X4959Y12323D02*
Y12502D01*
X4783Y12677D02*
X4959Y12502D01*
X4783Y13228D02*
X4980Y13032D01*
X10876Y8278D02*
Y11152D01*
X10870Y8272D02*
X10876Y8278D01*
X10433Y8272D02*
X10870D01*
X10433Y11272D02*
X10945D01*
X10876Y11152D02*
X10945Y11220D01*
X8858Y8701D02*
Y9016D01*
X4035Y9961D02*
X4606D01*
X3996Y10000D02*
X4035Y9961D01*
X8031Y5394D02*
X8543Y5906D01*
X5696Y5394D02*
X8031D01*
X5302Y5787D02*
X5696Y5394D01*
X1417Y8971D02*
X1614Y9168D01*
X1417Y7657D02*
Y8971D01*
X1358Y7598D02*
X1417Y7657D01*
X1220Y9052D02*
X1417Y9249D01*
X1220Y8004D02*
Y9052D01*
X1043Y7826D02*
X1220Y8004D01*
X1614Y9449D02*
X1713Y9547D01*
X1614Y9168D02*
Y9449D01*
X1417Y9530D02*
X1631Y9744D01*
X1417Y9249D02*
Y9530D01*
X1220Y9331D02*
Y11179D01*
X768Y8878D02*
X1220Y9331D01*
X768Y8248D02*
Y8878D01*
X1655Y11614D02*
X2559D01*
X1220Y11179D02*
X1655Y11614D01*
X1737Y11417D02*
X3011D01*
X1417Y11098D02*
X1737Y11417D01*
X1417Y10118D02*
Y11098D01*
X2559Y11614D02*
X2697Y11752D01*
X4606Y10157D02*
X5079D01*
X3819Y10059D02*
Y10059D01*
X3937D02*
X4035Y10157D01*
X4606D01*
Y9961D02*
Y10157D01*
X5217Y9350D02*
Y9705D01*
Y9272D02*
Y9350D01*
X5157Y9213D02*
X5217Y9272D01*
X4862Y9213D02*
X5157D01*
X11799Y4311D02*
X12165Y3945D01*
X11260Y4311D02*
X11799D01*
X11024Y6211D02*
Y6220D01*
Y6211D02*
X11289Y5945D01*
X11518D01*
X11772Y6199D01*
X11404Y6220D02*
X11575Y6392D01*
X11772Y6199D02*
Y8661D01*
X11575Y6392D02*
Y8743D01*
X11772Y8661D02*
X12382Y9272D01*
X12047Y7441D02*
X12087Y7480D01*
X11575Y8743D02*
X11919Y9087D01*
Y9321D01*
X12087Y7480D02*
Y8504D01*
X12354Y8772D01*
X12559D01*
X11752Y5531D02*
X12165Y5945D01*
X11260Y5531D02*
X11752D01*
X11260Y2421D02*
X11280Y2441D01*
X11772D01*
X10669Y2776D02*
X13091D01*
X13559Y3244D01*
X10669Y2776D02*
X10669Y2776D01*
X10669Y3445D02*
Y3996D01*
Y4665D02*
Y5217D01*
X11260Y4311D02*
Y4862D01*
Y3091D02*
Y3642D01*
X13067Y3346D02*
X13165Y3445D01*
X11555Y3346D02*
X13067D01*
X11260Y3642D02*
X11555Y3346D01*
X13165Y4388D02*
Y4445D01*
X12321Y3543D02*
X13165Y4388D01*
X11968Y3543D02*
X12321D01*
X11516Y3996D02*
X11968Y3543D01*
X10669Y3996D02*
X11516D01*
X11894Y5217D02*
X12165Y4945D01*
X10669Y5217D02*
X11894D01*
X13559Y3244D02*
Y5608D01*
X13222Y5945D02*
X13559Y5608D01*
X10689Y12441D02*
X10787D01*
X10413D02*
X10492D01*
X6378Y14744D02*
Y15886D01*
X6638Y15311D02*
Y17126D01*
Y15311D02*
X6713Y15236D01*
X5039Y10748D02*
X5118Y10669D01*
X5197D01*
X5217Y9705D02*
X5472Y9961D01*
X6457Y10315D02*
Y10474D01*
X6571Y10039D02*
X7242D01*
X6571Y10039D02*
X6571Y10039D01*
X6535Y11063D02*
X7130D01*
X5868Y11339D02*
X7244D01*
X6496Y11535D02*
X6575Y11614D01*
X6067Y11142D02*
X6854Y10354D01*
X5866Y10512D02*
X6339Y10039D01*
X5354Y10512D02*
X5866D01*
X5197Y10354D02*
X5354Y10512D01*
X4606Y10354D02*
X5197D01*
X4606Y10945D02*
X5150D01*
X5150Y10945D01*
X5985D01*
X4606Y11142D02*
X5232D01*
X5232Y11142D01*
X5949D01*
X4606Y11339D02*
X5313D01*
X5313Y11339D01*
X5868D01*
X4606Y11535D02*
X5395D01*
X5395Y11535D01*
X5786D01*
X4173Y11083D02*
Y11526D01*
X3839Y10748D02*
X4173Y11083D01*
X4055Y11644D02*
X4173Y11526D01*
X4055Y11644D02*
Y12323D01*
X10945Y11220D02*
Y11272D01*
X6772Y11890D02*
X6929Y11732D01*
X7441Y11142D02*
X7559Y11024D01*
X7362Y10550D02*
Y10831D01*
X7130Y11063D02*
X7362Y10831D01*
X7047Y10748D02*
X7165Y10630D01*
X6854Y10354D02*
X6890D01*
X7480Y11575D02*
Y11732D01*
X5985Y10945D02*
X6457Y10474D01*
X6224Y11732D02*
X6382Y11890D01*
X5705Y11732D02*
X6224D01*
X5949Y11142D02*
X6067D01*
X5949Y11142D02*
X5949Y11142D01*
X7244Y11339D02*
X7480Y11575D01*
X7362Y10550D02*
X7558Y10354D01*
X6339Y10039D02*
X6571D01*
X7165Y10467D02*
X7475Y10157D01*
X7165Y10467D02*
Y10630D01*
X5786Y11535D02*
X6496D01*
X5786Y11535D02*
X5786Y11535D01*
X7558Y10354D02*
X7992D01*
X6378Y12165D02*
X6398Y12185D01*
X6382Y11890D02*
X6772D01*
X7185Y12736D02*
Y15157D01*
X6791Y12736D02*
Y15157D01*
X5906Y8150D02*
X6398Y8642D01*
X6457Y7874D02*
Y8071D01*
X6220Y8031D02*
Y8186D01*
X6024Y7835D02*
X6220Y8031D01*
X12370Y9772D02*
X12559D01*
X11919Y9321D02*
X12370Y9772D01*
X12382Y9272D02*
X12559D01*
X11295Y16085D02*
X12677Y14703D01*
X11295Y16085D02*
Y17142D01*
X12874Y12636D02*
Y15063D01*
X11795Y16142D02*
X12874Y15063D01*
X12677Y12717D02*
Y14703D01*
X11919Y11959D02*
X12677Y12717D01*
X12116Y10666D02*
X12510Y10272D01*
X11919Y11084D02*
X12121Y10882D01*
X12121D01*
X12116Y10878D02*
X12121Y10882D01*
X12116Y10666D02*
Y10878D01*
X11919Y11084D02*
Y11959D01*
X12116Y11166D02*
X12510Y10772D01*
X12116Y11166D02*
Y11878D01*
X12874Y12636D01*
X12510Y10272D02*
X12559D01*
X12510Y10772D02*
X12559D01*
X10276Y10276D02*
X10276D01*
X3209Y5394D02*
X3209Y5394D01*
X4961D02*
X5039Y5315D01*
X3209Y5394D02*
X4961D01*
X2515Y5591D02*
X5220D01*
X3071Y5256D02*
X3209Y5394D01*
X3071Y5256D02*
X3465Y4862D01*
Y4429D02*
Y4862D01*
X3071Y4035D02*
X3465Y4429D01*
X4606Y10748D02*
X5039D01*
X5476Y11732D02*
X5705D01*
X5476Y11732D02*
X5476Y11732D01*
X4606Y11732D02*
X5476D01*
X12165Y5945D02*
X13222D01*
X8150Y8661D02*
Y8819D01*
X7913Y9055D02*
X8150Y8819D01*
X10787Y12441D02*
X10965Y12264D01*
X6201Y12378D02*
Y12736D01*
X5610Y12384D02*
Y12736D01*
X5529Y12302D02*
X5610Y12384D01*
X4979Y12302D02*
X5529D01*
X6398Y12185D02*
Y12736D01*
X5868Y11339D02*
X5868Y11339D01*
X5705Y11732D02*
X5705Y11732D01*
X7559Y10632D02*
X7640Y10551D01*
X7559Y10632D02*
Y11024D01*
X6260Y13504D02*
X6260Y13504D01*
X7874Y9764D02*
X8484Y9154D01*
X7518Y9764D02*
X7874D01*
X7242Y10039D02*
X7518Y9764D01*
X7475Y10157D02*
X7992D01*
X7640Y10551D02*
X7992D01*
X6594Y8560D02*
Y9350D01*
X6220Y8186D02*
X6594Y8560D01*
X5906Y7795D02*
X5945Y7835D01*
X6004Y8917D02*
X6102Y8819D01*
X5866Y8543D02*
Y8587D01*
X5394Y8661D02*
X5610Y8878D01*
X5138Y8661D02*
X5394D01*
X6398Y8642D02*
Y9350D01*
X6457Y8071D02*
X6654Y8268D01*
X3150Y11556D02*
Y11958D01*
X3011Y11417D02*
X3150Y11556D01*
X1417Y10118D02*
X1496Y10039D01*
X1631Y9744D02*
X2245D01*
X1713Y9547D02*
X2697D01*
X2245Y9744D02*
X2481Y9980D01*
X3839Y10748D02*
X4606D01*
X3819Y10728D02*
X3839Y10748D01*
X276Y6811D02*
Y9547D01*
Y6811D02*
X591Y6496D01*
X1614Y3386D02*
X1634Y3366D01*
X2480D01*
X3071D01*
X1614Y4386D02*
X1815Y4587D01*
X2480D01*
X3071D01*
X1846Y6260D02*
X2515Y5591D01*
X1262Y6260D02*
X1846D01*
X1043Y6478D02*
X1262Y6260D01*
X1043Y6478D02*
Y7826D01*
X1457Y6752D02*
X1632D01*
X5220Y5591D02*
X6874Y3937D01*
X2481Y9980D02*
X2500D01*
X6909Y8661D02*
X7185Y8937D01*
Y9350D01*
X8858Y8701D02*
X8898Y8661D01*
X7579D02*
X8150D01*
X7382Y8858D02*
X7579Y8661D01*
X7382Y8858D02*
Y9350D01*
Y14528D02*
X7500Y14646D01*
X7382Y12736D02*
Y14528D01*
X6476Y14646D02*
X6594Y14528D01*
Y12736D02*
Y14528D01*
X5945Y7835D02*
X6024D01*
X6004Y8917D02*
Y9350D01*
X5807Y8724D02*
Y9350D01*
Y8724D02*
X5906Y8626D01*
X5610Y8878D02*
Y9350D01*
X7992Y10354D02*
X7992Y10354D01*
X5866Y8587D02*
X5906Y8626D01*
X7618Y17106D02*
X7638Y17126D01*
X7618Y14764D02*
Y17106D01*
X7500Y14646D02*
X7618Y14764D01*
X6378Y14744D02*
X6476Y14646D01*
X6138Y16126D02*
X6378Y15886D01*
X7138Y16126D02*
X7264Y16000D01*
Y15236D02*
Y16000D01*
X591Y7008D02*
Y7500D01*
X689Y7598D01*
X1632Y6752D02*
X2596Y5787D01*
X5302D01*
X2785Y12323D02*
X3150Y11958D01*
X2283Y12323D02*
X2785D01*
X8335Y8268D02*
X8484Y8417D01*
X6654Y8268D02*
X8335D01*
X8484Y8417D02*
Y9154D01*
X8150Y13976D02*
X8189D01*
X8553Y9478D02*
X8898D01*
X8484Y9547D02*
X8553Y9478D01*
X7992Y11142D02*
X8681D01*
X8858Y11319D01*
X8484Y9547D02*
Y9823D01*
X8474Y9833D02*
X8484Y9823D01*
X10157Y10787D02*
X10236D01*
X3915Y12323D02*
X4055D01*
X4449Y13012D02*
X4783Y12677D01*
X4114Y14291D02*
X4449D01*
Y13012D02*
Y14291D01*
X4114Y14843D02*
X4449Y14508D01*
Y14291D02*
Y14508D01*
X4959Y12323D02*
X4979Y12302D01*
X4055Y12323D02*
X4055Y12323D01*
X4959D01*
X4488Y15354D02*
X4823D01*
X4114Y12677D02*
Y13228D01*
Y12677D02*
X4114Y12677D01*
X3839D02*
X4114D01*
X3642Y12874D02*
X3839Y12677D01*
X3425Y12874D02*
X3642D01*
X4114Y13228D02*
Y13780D01*
X4114Y13780D01*
X8898Y9488D02*
Y10098D01*
D29*
X8642Y15394D02*
Y16831D01*
X7933Y17539D02*
X8642Y16831D01*
X4409Y17539D02*
X7933D01*
X4409Y16805D02*
Y17539D01*
X8484Y15236D02*
X8642Y15394D01*
X571Y15925D02*
X669Y16024D01*
X571Y13602D02*
Y15925D01*
X4902Y15945D02*
Y16313D01*
X4409Y16805D02*
X4902Y16313D01*
Y15945D02*
X5492Y15354D01*
X2047Y13307D02*
X2165Y13189D01*
X571Y13602D02*
X866Y13307D01*
X2047D01*
D30*
X4400Y17549D02*
X4409Y17539D01*
X354Y17126D02*
Y17244D01*
X659Y17549D01*
X4400D01*
D31*
X256Y16201D02*
X705Y16650D01*
X256Y13002D02*
X551Y12707D01*
X256Y13002D02*
Y16201D01*
X705Y16650D02*
X3496D01*
X3988Y17142D01*
D32*
X9295D02*
D03*
X9795Y16142D02*
D03*
X10295Y17142D02*
D03*
X10795Y16142D02*
D03*
X11295Y17142D02*
D03*
X11795Y16142D02*
D03*
X12295Y17142D02*
D03*
X12795Y16142D02*
D03*
X7874Y3937D02*
D03*
X7374Y2937D02*
D03*
X6874Y3937D02*
D03*
X6374Y2937D02*
D03*
X5874Y3937D02*
D03*
X5374Y2937D02*
D03*
X4874Y3937D02*
D03*
X4374Y2937D02*
D03*
X6138Y16126D02*
D03*
X6638Y17126D02*
D03*
X7138Y16126D02*
D03*
X7638Y17126D02*
D03*
X12165Y5945D02*
D03*
X13165Y5445D02*
D03*
X12165Y4945D02*
D03*
X13165Y4445D02*
D03*
X12165Y3945D02*
D03*
X13165Y3445D02*
D03*
X614Y4886D02*
D03*
X1614Y4386D02*
D03*
X614Y3886D02*
D03*
X1614Y3386D02*
D03*
X988Y17142D02*
D03*
X1488Y16142D02*
D03*
X1988Y17142D02*
D03*
X2488Y16142D02*
D03*
X2988Y17142D02*
D03*
X3488Y16142D02*
D03*
X3988Y17142D02*
D03*
X4488Y16142D02*
D03*
D33*
X3386Y12953D02*
D03*
X4370Y15354D02*
D03*
X2559Y13189D02*
D03*
X394Y12913D02*
D03*
X787D02*
D03*
X3268Y13976D02*
D03*
X10354Y14409D02*
D03*
X8701Y14764D02*
D03*
X8898Y7244D02*
D03*
X7874D02*
D03*
X7323Y7874D02*
D03*
X7047Y8583D02*
D03*
X10315Y13307D02*
D03*
X2165Y13189D02*
D03*
X9813Y12589D02*
D03*
D34*
X354Y17126D02*
D03*
X1024Y14173D02*
D03*
X669Y16024D02*
D03*
X1024Y15197D02*
D03*
X5512Y15945D02*
D03*
X6260Y13583D02*
D03*
X5354Y14764D02*
D03*
X7441Y5866D02*
D03*
X7283Y4685D02*
D03*
X9646Y5866D02*
D03*
X8858Y5551D02*
D03*
X1755Y8474D02*
D03*
X1890Y10394D02*
D03*
X748Y11102D02*
D03*
X10000Y5039D02*
D03*
X1850Y5709D02*
D03*
X2362Y6654D02*
D03*
X3307Y6811D02*
D03*
X4016Y4055D02*
D03*
X1693Y2638D02*
D03*
X3228D02*
D03*
X9803Y6890D02*
D03*
X9961Y2638D02*
D03*
Y3543D02*
D03*
X6220Y5748D02*
D03*
X6457Y5079D02*
D03*
X8740Y4094D02*
D03*
X3898Y8661D02*
D03*
X394Y6063D02*
D03*
X8583Y17441D02*
D03*
X9094Y16457D02*
D03*
X9055Y15748D02*
D03*
X3346Y12323D02*
D03*
X5945Y17087D02*
D03*
X1024Y13701D02*
D03*
X1811Y15197D02*
D03*
X1024Y14803D02*
D03*
X1811D02*
D03*
X1417D02*
D03*
Y15197D02*
D03*
X2205Y14331D02*
D03*
X2559D02*
D03*
X1693Y13898D02*
D03*
X1457Y12913D02*
D03*
Y12480D02*
D03*
D35*
X5433Y13504D02*
D03*
X6024Y12201D02*
D03*
X8858Y9016D02*
D03*
X10472Y9291D02*
D03*
X8543Y5906D02*
D03*
X3976Y9646D02*
D03*
X10630Y2953D02*
D03*
X10669Y5617D02*
D03*
X11024Y6220D02*
D03*
X11404D02*
D03*
X12047Y7441D02*
D03*
X11772Y2441D02*
D03*
X7126Y12165D02*
D03*
X4921Y9646D02*
D03*
X5472Y9921D02*
D03*
X6457Y10315D02*
D03*
X6535Y11063D02*
D03*
X6575Y11614D02*
D03*
X5118Y10669D02*
D03*
X5118Y12008D02*
D03*
X3878Y11260D02*
D03*
X10945Y11220D02*
D03*
X10472Y9764D02*
D03*
X6929Y11732D02*
D03*
X7441Y11142D02*
D03*
X7047Y10748D02*
D03*
X6890Y10354D02*
D03*
X7480Y11732D02*
D03*
X6378Y12165D02*
D03*
X4921Y4882D02*
D03*
X4331Y7087D02*
D03*
X5906Y8150D02*
D03*
X6457Y7874D02*
D03*
X4646Y8740D02*
D03*
X12886Y11272D02*
D03*
X12992Y11772D02*
D03*
X10276Y10276D02*
D03*
X5039Y5315D02*
D03*
X12992Y8780D02*
D03*
X12953Y8268D02*
D03*
X7913Y9055D02*
D03*
X10965Y12264D02*
D03*
X8976Y8031D02*
D03*
X5906Y7795D02*
D03*
X6102Y8819D02*
D03*
X5866Y8543D02*
D03*
X1496Y10039D02*
D03*
X2500Y9980D02*
D03*
X4055Y11644D02*
D03*
X9094Y12638D02*
D03*
X9331Y13307D02*
D03*
X8189Y13976D02*
D03*
X7756Y14055D02*
D03*
X9921Y12244D02*
D03*
X9055Y11850D02*
D03*
X8474Y9833D02*
D03*
X8504Y10827D02*
D03*
Y11417D02*
D03*
X10157Y10787D02*
D03*
M02*
