G04 Layer_Physical_Order=2*
G04 Layer_Color=16711680*
%FSLAX24Y24*%
%MOIN*%
G70*
G01*
G75*
G04:AMPARAMS|DCode=10|XSize=39.4mil|YSize=35.4mil|CornerRadius=4.4mil|HoleSize=0mil|Usage=FLASHONLY|Rotation=180.000|XOffset=0mil|YOffset=0mil|HoleType=Round|Shape=RoundedRectangle|*
%AMROUNDEDRECTD10*
21,1,0.0394,0.0266,0,0,180.0*
21,1,0.0305,0.0354,0,0,180.0*
1,1,0.0089,-0.0153,0.0133*
1,1,0.0089,0.0153,0.0133*
1,1,0.0089,0.0153,-0.0133*
1,1,0.0089,-0.0153,-0.0133*
%
%ADD10ROUNDEDRECTD10*%
G04:AMPARAMS|DCode=12|XSize=39.4mil|YSize=35.4mil|CornerRadius=4.4mil|HoleSize=0mil|Usage=FLASHONLY|Rotation=270.000|XOffset=0mil|YOffset=0mil|HoleType=Round|Shape=RoundedRectangle|*
%AMROUNDEDRECTD12*
21,1,0.0394,0.0266,0,0,270.0*
21,1,0.0305,0.0354,0,0,270.0*
1,1,0.0089,-0.0133,-0.0153*
1,1,0.0089,-0.0133,0.0153*
1,1,0.0089,0.0133,0.0153*
1,1,0.0089,0.0133,-0.0153*
%
%ADD12ROUNDEDRECTD12*%
%ADD16R,0.0591X0.0118*%
%ADD17R,0.0118X0.0591*%
%ADD27C,0.0118*%
%ADD28C,0.0197*%
%ADD31C,0.0276*%
%ADD32C,0.0512*%
%ADD33R,0.0532X0.0532*%
%ADD34C,0.0532*%
%ADD35C,0.0354*%
%ADD36C,0.0276*%
%ADD37C,0.0315*%
%ADD38C,0.0394*%
%ADD39R,0.0118X0.0571*%
%ADD40O,0.0118X0.0571*%
G04:AMPARAMS|DCode=41|XSize=90.6mil|YSize=70.9mil|CornerRadius=8.9mil|HoleSize=0mil|Usage=FLASHONLY|Rotation=180.000|XOffset=0mil|YOffset=0mil|HoleType=Round|Shape=RoundedRectangle|*
%AMROUNDEDRECTD41*
21,1,0.0906,0.0532,0,0,180.0*
21,1,0.0728,0.0709,0,0,180.0*
1,1,0.0177,-0.0364,0.0266*
1,1,0.0177,0.0364,0.0266*
1,1,0.0177,0.0364,-0.0266*
1,1,0.0177,-0.0364,-0.0266*
%
%ADD41ROUNDEDRECTD41*%
G04:AMPARAMS|DCode=42|XSize=55.1mil|YSize=39.4mil|CornerRadius=4.9mil|HoleSize=0mil|Usage=FLASHONLY|Rotation=90.000|XOffset=0mil|YOffset=0mil|HoleType=Round|Shape=RoundedRectangle|*
%AMROUNDEDRECTD42*
21,1,0.0551,0.0295,0,0,90.0*
21,1,0.0453,0.0394,0,0,90.0*
1,1,0.0098,0.0148,0.0226*
1,1,0.0098,0.0148,-0.0226*
1,1,0.0098,-0.0148,-0.0226*
1,1,0.0098,-0.0148,0.0226*
%
%ADD42ROUNDEDRECTD42*%
%ADD43R,0.0413X0.0512*%
G04:AMPARAMS|DCode=44|XSize=70.9mil|YSize=45.3mil|CornerRadius=5.7mil|HoleSize=0mil|Usage=FLASHONLY|Rotation=270.000|XOffset=0mil|YOffset=0mil|HoleType=Round|Shape=RoundedRectangle|*
%AMROUNDEDRECTD44*
21,1,0.0709,0.0340,0,0,270.0*
21,1,0.0595,0.0453,0,0,270.0*
1,1,0.0113,-0.0170,-0.0298*
1,1,0.0113,-0.0170,0.0298*
1,1,0.0113,0.0170,0.0298*
1,1,0.0113,0.0170,-0.0298*
%
%ADD44ROUNDEDRECTD44*%
%ADD45R,0.0283X0.0701*%
%ADD46O,0.0283X0.0701*%
%ADD47O,0.0236X0.0472*%
%ADD48R,0.0236X0.0472*%
%ADD49R,0.1181X0.1575*%
%ADD50C,0.0157*%
G36*
X9567Y16388D02*
X9557Y16380D01*
X9503Y16310D01*
X9469Y16229D01*
X9458Y16142D01*
X9469Y16054D01*
X9503Y15973D01*
X9557Y15903D01*
X9567Y15895D01*
Y15551D01*
X9655D01*
Y15247D01*
X8467Y14060D01*
X8379Y14082D01*
X8345Y14132D01*
X8273Y14180D01*
X8189Y14197D01*
X8104Y14180D01*
X8033Y14132D01*
X7985Y14061D01*
X7972Y13998D01*
X7750Y13775D01*
X7677Y13806D01*
Y13858D01*
X7672Y13864D01*
X7680Y13903D01*
Y13976D01*
X7124D01*
Y13903D01*
X7131Y13864D01*
X7126Y13858D01*
Y13543D01*
X7131Y13538D01*
X7124Y13499D01*
Y13316D01*
X7114Y13302D01*
X7104Y13248D01*
Y13091D01*
X5022D01*
Y15512D01*
X5012Y15566D01*
X4981Y15611D01*
X4745Y15847D01*
X4699Y15878D01*
X4646Y15889D01*
X4383D01*
X4031Y16241D01*
X3985Y16272D01*
X3931Y16282D01*
X3792D01*
X3780Y16310D01*
X3727Y16380D01*
X3657Y16434D01*
X3576Y16468D01*
X3488Y16479D01*
X3401Y16468D01*
X3319Y16434D01*
X3250Y16380D01*
X3196Y16310D01*
X3162Y16229D01*
X3089Y16248D01*
Y16821D01*
X3157Y16849D01*
X3227Y16903D01*
X3280Y16973D01*
X3314Y17054D01*
X3326Y17142D01*
X3314Y17229D01*
X3280Y17311D01*
X3227Y17380D01*
X3157Y17434D01*
X3076Y17468D01*
X2988Y17479D01*
X2901Y17468D01*
X2819Y17434D01*
X2750Y17380D01*
X2696Y17311D01*
X2662Y17229D01*
X2651Y17142D01*
X2662Y17054D01*
X2696Y16973D01*
X2750Y16903D01*
X2808Y16858D01*
Y16404D01*
X2730Y16377D01*
X2727Y16380D01*
X2657Y16434D01*
X2576Y16468D01*
X2488Y16479D01*
X2401Y16468D01*
X2319Y16434D01*
X2250Y16380D01*
X2196Y16310D01*
X2162Y16229D01*
X2089Y16248D01*
Y16821D01*
X2157Y16849D01*
X2227Y16903D01*
X2280Y16973D01*
X2314Y17054D01*
X2326Y17142D01*
X2314Y17229D01*
X2280Y17311D01*
X2227Y17380D01*
X2157Y17434D01*
X2076Y17468D01*
X1988Y17479D01*
X1901Y17468D01*
X1819Y17434D01*
X1750Y17380D01*
X1696Y17311D01*
X1662Y17229D01*
X1651Y17142D01*
X1662Y17054D01*
X1696Y16973D01*
X1750Y16903D01*
X1808Y16858D01*
Y16404D01*
X1730Y16377D01*
X1727Y16380D01*
X1657Y16434D01*
X1576Y16468D01*
X1488Y16479D01*
X1401Y16468D01*
X1319Y16434D01*
X1250Y16380D01*
X1196Y16310D01*
X1162Y16229D01*
X1089Y16248D01*
Y16821D01*
X1157Y16849D01*
X1227Y16903D01*
X1280Y16973D01*
X1314Y17054D01*
X1326Y17142D01*
X1314Y17229D01*
X1280Y17311D01*
X1227Y17380D01*
X1157Y17434D01*
X1076Y17468D01*
X988Y17479D01*
X901Y17468D01*
X819Y17434D01*
X750Y17380D01*
X696Y17311D01*
X662Y17229D01*
X651Y17142D01*
X662Y17054D01*
X696Y16973D01*
X750Y16903D01*
X808Y16858D01*
Y16085D01*
X819Y16031D01*
X849Y15986D01*
X1186Y15649D01*
X1232Y15618D01*
X1286Y15608D01*
X1671D01*
X2023Y15255D01*
X2069Y15225D01*
X2123Y15214D01*
X2289D01*
X3560Y13942D01*
Y12148D01*
X3522Y12109D01*
X3346D01*
X3333Y12106D01*
X2972D01*
X2923Y12165D01*
Y12224D01*
X2839D01*
X2818Y12303D01*
X2840Y12318D01*
X2867Y12358D01*
X2876Y12406D01*
Y12712D01*
X2867Y12760D01*
X2840Y12800D01*
X2799Y12828D01*
X2751Y12837D01*
X2485D01*
X2446Y12829D01*
X2441Y12835D01*
X2126D01*
X2121Y12829D01*
X2082Y12837D01*
X2008D01*
Y12559D01*
X1949D01*
Y12500D01*
X1690D01*
Y12406D01*
X1700Y12358D01*
X1727Y12318D01*
X1749Y12303D01*
X1728Y12224D01*
X1624D01*
Y11999D01*
X1545Y11957D01*
X1539Y11961D01*
X1491Y11971D01*
X1398D01*
Y11713D01*
X1339D01*
Y11654D01*
X1061D01*
Y11580D01*
X1068Y11541D01*
X1063Y11535D01*
Y11220D01*
X1068Y11215D01*
X1061Y11176D01*
Y10910D01*
X1070Y10862D01*
X1097Y10822D01*
X1138Y10795D01*
X1186Y10785D01*
X1491D01*
X1539Y10795D01*
X1545Y10799D01*
X1624Y10757D01*
Y10716D01*
X1622Y10698D01*
X1617Y10640D01*
X1609Y10635D01*
X1582Y10594D01*
X1582Y10594D01*
X1578Y10575D01*
X1572Y10546D01*
Y10453D01*
X1831D01*
Y10335D01*
X1572D01*
Y10307D01*
X1512Y10257D01*
X1496Y10260D01*
X1412Y10243D01*
X1340Y10195D01*
X1292Y10124D01*
X1275Y10039D01*
X1292Y9955D01*
X1340Y9883D01*
X1412Y9835D01*
X1496Y9819D01*
X1514Y9822D01*
X1572Y9764D01*
Y9651D01*
X1582Y9603D01*
X1609Y9562D01*
X1650Y9535D01*
X1690Y9527D01*
Y9410D01*
X1650Y9402D01*
X1609Y9375D01*
X1582Y9334D01*
X1572Y9286D01*
Y8981D01*
X1582Y8933D01*
X1604Y8900D01*
X1595Y8865D01*
X1574Y8821D01*
X1506D01*
X1456Y8811D01*
X1414Y8783D01*
X1385Y8741D01*
X1375Y8691D01*
Y8524D01*
X1654D01*
Y8406D01*
X1375D01*
Y8238D01*
X1385Y8188D01*
X1414Y8146D01*
X1456Y8118D01*
X1506Y8108D01*
X1657D01*
X1678Y8029D01*
X1641Y8004D01*
X1604Y7949D01*
X1591Y7884D01*
Y7352D01*
X1604Y7287D01*
X1626Y7247D01*
X1626D01*
X1626Y7247D01*
Y6847D01*
X2576D01*
Y5546D01*
X1730Y4700D01*
X1702Y4712D01*
X1614Y4723D01*
X1527Y4712D01*
X1445Y4678D01*
X1375Y4624D01*
X1322Y4555D01*
X1288Y4473D01*
X1277Y4386D01*
X1288Y4298D01*
X1322Y4217D01*
X1375Y4147D01*
X1445Y4094D01*
X1527Y4060D01*
X1614Y4048D01*
X1702Y4060D01*
X1783Y4094D01*
X1828Y4128D01*
X1905Y4096D01*
X1907Y4094D01*
Y3877D01*
X1730Y3700D01*
X1702Y3712D01*
X1614Y3723D01*
X1527Y3712D01*
X1445Y3678D01*
X1375Y3625D01*
X1322Y3555D01*
X1288Y3473D01*
X1277Y3386D01*
X1288Y3298D01*
X1322Y3217D01*
X1375Y3147D01*
X1445Y3094D01*
X1527Y3060D01*
X1614Y3048D01*
X1702Y3060D01*
X1783Y3094D01*
X1853Y3147D01*
X1906Y3217D01*
X1940Y3298D01*
X1952Y3386D01*
X1940Y3473D01*
X1928Y3501D01*
X2147Y3720D01*
X2177Y3765D01*
X2188Y3819D01*
Y4469D01*
X3013Y5294D01*
X3043Y5340D01*
X3054Y5394D01*
Y7106D01*
X3532D01*
X3575Y7028D01*
X3571Y7022D01*
X3560Y6969D01*
Y4832D01*
X3571Y4778D01*
X3601Y4733D01*
X4234Y4100D01*
Y3241D01*
X4205Y3229D01*
X4135Y3176D01*
X4082Y3106D01*
X4048Y3024D01*
X4036Y2937D01*
X4048Y2850D01*
X4082Y2768D01*
X4135Y2698D01*
X4205Y2645D01*
X4287Y2611D01*
X4374Y2599D01*
X4461Y2611D01*
X4543Y2645D01*
X4613Y2698D01*
X4666Y2768D01*
X4700Y2850D01*
X4712Y2937D01*
X4700Y3024D01*
X4666Y3106D01*
X4613Y3176D01*
X4543Y3229D01*
X4515Y3241D01*
Y3733D01*
X4530Y3741D01*
X4593Y3753D01*
X4635Y3698D01*
X4705Y3645D01*
X4787Y3611D01*
X4874Y3599D01*
X4961Y3611D01*
X5043Y3645D01*
X5113Y3698D01*
X5155Y3753D01*
X5218Y3741D01*
X5234Y3733D01*
Y3241D01*
X5205Y3229D01*
X5135Y3176D01*
X5082Y3106D01*
X5048Y3024D01*
X5036Y2937D01*
X5048Y2850D01*
X5082Y2768D01*
X5135Y2698D01*
X5205Y2645D01*
X5287Y2611D01*
X5374Y2599D01*
X5461Y2611D01*
X5543Y2645D01*
X5613Y2698D01*
X5666Y2768D01*
X5700Y2850D01*
X5712Y2937D01*
X5700Y3024D01*
X5666Y3106D01*
X5613Y3176D01*
X5543Y3229D01*
X5515Y3241D01*
Y3733D01*
X5530Y3741D01*
X5593Y3753D01*
X5635Y3698D01*
X5705Y3645D01*
X5787Y3611D01*
X5874Y3599D01*
X5961Y3611D01*
X6043Y3645D01*
X6113Y3698D01*
X6166Y3768D01*
X6200Y3850D01*
X6212Y3937D01*
X6200Y4024D01*
X6166Y4106D01*
X6113Y4176D01*
X6043Y4229D01*
X5961Y4263D01*
X5874Y4275D01*
X5787Y4263D01*
X5705Y4229D01*
X5655Y4190D01*
X5218Y4627D01*
X5172Y4657D01*
X5119Y4668D01*
X4898D01*
X4629Y4938D01*
Y6122D01*
X4741D01*
Y5925D01*
X4752Y5871D01*
X4761Y5858D01*
Y5635D01*
X4771Y5587D01*
X4798Y5546D01*
X4834Y5522D01*
X4841Y5509D01*
X4859Y5435D01*
X4835Y5399D01*
X4819Y5315D01*
X4835Y5230D01*
X4883Y5159D01*
X4955Y5111D01*
X5039Y5094D01*
X5124Y5111D01*
X5195Y5159D01*
X5243Y5230D01*
X5260Y5315D01*
X5243Y5399D01*
X5221Y5433D01*
X5263Y5512D01*
X5512D01*
X5517Y5517D01*
X5556Y5509D01*
X5630D01*
Y5787D01*
X5689D01*
Y5846D01*
X5947D01*
Y5940D01*
X5938Y5988D01*
X5911Y6029D01*
X5889Y6043D01*
X5910Y6122D01*
X7382D01*
Y6482D01*
X7385Y6496D01*
X7500D01*
Y6122D01*
X8340D01*
X8352Y6106D01*
X8375Y6043D01*
X8339Y5990D01*
X8323Y5906D01*
X8339Y5821D01*
X8387Y5749D01*
X8459Y5702D01*
X8543Y5685D01*
X8628Y5702D01*
X8699Y5749D01*
X8747Y5821D01*
X8758Y5874D01*
X8918Y6034D01*
X8949Y6080D01*
X8959Y6134D01*
Y6496D01*
X8957Y6510D01*
Y6870D01*
X7385D01*
Y7147D01*
X7775Y7537D01*
X8622D01*
X8676Y7547D01*
X8721Y7578D01*
X8958Y7814D01*
X8976Y7811D01*
X9061Y7828D01*
X9114Y7863D01*
X9177Y7840D01*
X9193Y7828D01*
Y7500D01*
Y7106D01*
X9553D01*
X9567Y7104D01*
X9940D01*
X10004Y7090D01*
X10017Y7027D01*
Y5964D01*
X8800Y4747D01*
X7677D01*
X7623Y4736D01*
X7578Y4706D01*
X7168Y4296D01*
X7140Y4254D01*
X7137Y4250D01*
X7052Y4222D01*
X7043Y4229D01*
X6961Y4263D01*
X6874Y4275D01*
X6787Y4263D01*
X6705Y4229D01*
X6635Y4176D01*
X6582Y4106D01*
X6548Y4024D01*
X6536Y3937D01*
X6548Y3850D01*
X6582Y3768D01*
X6635Y3698D01*
X6705Y3645D01*
X6787Y3611D01*
X6794Y3610D01*
X6822Y3527D01*
X6530Y3235D01*
X6461Y3263D01*
X6374Y3275D01*
X6287Y3263D01*
X6205Y3229D01*
X6135Y3176D01*
X6082Y3106D01*
X6048Y3024D01*
X6036Y2937D01*
X6048Y2850D01*
X6082Y2768D01*
X6135Y2698D01*
X6205Y2645D01*
X6287Y2611D01*
X6374Y2599D01*
X6461Y2611D01*
X6543Y2645D01*
X6613Y2698D01*
X6666Y2768D01*
X6700Y2850D01*
X6712Y2937D01*
X6702Y3010D01*
X7367Y3675D01*
X7398Y3720D01*
X7408Y3774D01*
Y4139D01*
X7735Y4466D01*
X8858D01*
X8912Y4476D01*
X8958Y4507D01*
X10163Y5713D01*
X10236Y5683D01*
Y2362D01*
X100D01*
Y17616D01*
X9567D01*
Y16388D01*
D02*
G37*
G36*
X19585Y17533D02*
X19585Y14370D01*
X17598Y14370D01*
X17598Y15665D01*
X17682Y15748D01*
X18386D01*
X18386Y17616D01*
X19501D01*
X19585Y17533D01*
D02*
G37*
G36*
X15433D02*
X15433Y15748D01*
X16570Y15748D01*
X16654Y15665D01*
X16654Y14609D01*
X16535Y14491D01*
X14921D01*
X14921Y14491D01*
X14860Y14479D01*
X14808Y14444D01*
X14808Y14444D01*
X14734Y14370D01*
X14252D01*
Y17616D01*
X15350D01*
X15433Y17533D01*
D02*
G37*
G36*
X19585Y13853D02*
X19585Y10140D01*
X18378D01*
X18268Y10157D01*
X18268Y10258D01*
Y11890D01*
X16929D01*
Y11890D01*
X16813Y11896D01*
X16788Y11915D01*
X16704Y11950D01*
X16614Y11962D01*
X16524Y11950D01*
X16440Y11915D01*
X16407Y11890D01*
X15551D01*
Y10258D01*
X15551Y10157D01*
X15440Y10140D01*
X14335D01*
X14252Y10223D01*
X14252Y13089D01*
X14370Y13146D01*
X14398Y13127D01*
X14484Y13110D01*
X14570Y13127D01*
X14643Y13176D01*
X14692Y13249D01*
X14709Y13335D01*
Y13752D01*
X14692Y13838D01*
X14686Y13848D01*
X14758Y13937D01*
X16625D01*
X16709Y13853D01*
Y13811D01*
X16724Y13734D01*
X16731Y13723D01*
X16759Y13653D01*
X16713Y13563D01*
X16693Y13543D01*
Y13150D01*
X16772Y13071D01*
X17087D01*
X17092Y13076D01*
X17131Y13068D01*
X17397D01*
X17445Y13078D01*
X17485Y13105D01*
X17513Y13146D01*
X17522Y13194D01*
Y13197D01*
X17640Y13223D01*
X17672Y13176D01*
X17745Y13127D01*
X17831Y13110D01*
X17917Y13127D01*
X17990Y13176D01*
X18038Y13249D01*
X18055Y13335D01*
Y13752D01*
X18042Y13819D01*
X18075Y13885D01*
X18114Y13937D01*
X19501D01*
X19585Y13853D01*
D02*
G37*
G36*
X5138Y12343D02*
X6141D01*
X6183Y12264D01*
X6174Y12250D01*
X6157Y12165D01*
X6174Y12081D01*
X6222Y12009D01*
X6237Y11999D01*
Y11869D01*
X6200Y11832D01*
X6169Y11786D01*
X6159Y11732D01*
Y11515D01*
X5402Y10758D01*
X5377Y10757D01*
X5315Y10769D01*
X5309Y10774D01*
X5274Y10825D01*
X5203Y10873D01*
X5118Y10890D01*
X5034Y10873D01*
X4962Y10825D01*
X4914Y10754D01*
X4897Y10669D01*
X4914Y10585D01*
X4962Y10513D01*
X5034Y10465D01*
X5118Y10448D01*
X5135Y10435D01*
Y10172D01*
X5098Y10135D01*
X5067Y10089D01*
X5056Y10035D01*
Y9807D01*
X5067Y9753D01*
X5098Y9708D01*
X5135Y9670D01*
Y9279D01*
X4772Y8916D01*
X4730Y8944D01*
X4646Y8961D01*
X4561Y8944D01*
X4490Y8896D01*
X4442Y8825D01*
X4425Y8740D01*
X4442Y8656D01*
X4490Y8584D01*
X4505Y8574D01*
Y7205D01*
X4516Y7151D01*
X4546Y7105D01*
X4703Y6949D01*
X4670Y6870D01*
X4166D01*
X4114Y6949D01*
X4117Y6966D01*
Y7754D01*
X4106Y7808D01*
X4076Y7853D01*
X3798Y8131D01*
X3753Y8161D01*
X3720Y8168D01*
Y8484D01*
Y8878D01*
Y9154D01*
X3360D01*
X3346Y9156D01*
Y9269D01*
X3360Y9272D01*
X3720D01*
Y9272D01*
Y9665D01*
Y9941D01*
X3346D01*
Y10059D01*
X3720D01*
Y10059D01*
Y10453D01*
Y10846D01*
Y11240D01*
Y11584D01*
X3768Y11611D01*
X3848Y11573D01*
X3851Y11559D01*
X3899Y11488D01*
X3971Y11440D01*
X4055Y11423D01*
X4140Y11440D01*
X4211Y11488D01*
X4259Y11559D01*
X4276Y11644D01*
X4259Y11728D01*
X4211Y11800D01*
X4211Y11806D01*
X4588Y12183D01*
X4618Y12229D01*
X4629Y12283D01*
Y12343D01*
X5020D01*
Y12703D01*
X5022Y12717D01*
X5138D01*
Y12343D01*
D02*
G37*
G36*
X10630Y15165D02*
Y12087D01*
X10472D01*
X10467Y12081D01*
X10428Y12089D01*
X10162D01*
X10114Y12079D01*
X10074Y12052D01*
X10047Y12012D01*
X10037Y11964D01*
Y11811D01*
X10020Y11799D01*
X9941Y11839D01*
Y12106D01*
X9193D01*
Y11772D01*
X9114Y11730D01*
X9100Y11739D01*
X9016Y11756D01*
X8931Y11739D01*
X8860Y11692D01*
X8812Y11620D01*
X8795Y11535D01*
X8812Y11451D01*
X8860Y11379D01*
X8931Y11331D01*
X9016Y11315D01*
X9034Y11318D01*
X9074Y11279D01*
X9119Y11248D01*
X9173Y11237D01*
X9193D01*
Y11237D01*
X9567D01*
Y11122D01*
X9193D01*
Y11043D01*
Y10650D01*
Y10256D01*
Y9862D01*
Y9469D01*
Y9075D01*
Y8681D01*
Y8235D01*
X9177Y8223D01*
X9114Y8200D01*
X9061Y8235D01*
X8976Y8252D01*
X8958Y8249D01*
X8130Y9077D01*
X8117Y9140D01*
X8069Y9211D01*
X7998Y9259D01*
X7913Y9276D01*
X7829Y9259D01*
X7757Y9211D01*
X7709Y9140D01*
X7693Y9055D01*
X7709Y8971D01*
X7757Y8899D01*
X7829Y8851D01*
X7913Y8834D01*
X7965Y8845D01*
X8759Y8050D01*
X8756Y8031D01*
X8759Y8013D01*
X8564Y7818D01*
X7717D01*
X7663Y7807D01*
X7617Y7777D01*
X7145Y7304D01*
X7114Y7258D01*
X7104Y7205D01*
Y6870D01*
X6991D01*
Y7541D01*
X7028Y7579D01*
X7059Y7625D01*
X7070Y7678D01*
Y8070D01*
X7059Y8123D01*
X7028Y8169D01*
X6794Y8403D01*
Y10060D01*
X6871Y10137D01*
X6890Y10134D01*
X6974Y10150D01*
X7046Y10198D01*
X7094Y10270D01*
X7111Y10354D01*
X7094Y10439D01*
X7083Y10454D01*
X7120Y10542D01*
X7132Y10544D01*
X7203Y10592D01*
X7251Y10664D01*
X7268Y10748D01*
X7251Y10832D01*
X7203Y10904D01*
X7176Y10922D01*
X7200Y11001D01*
X7274D01*
X7285Y10986D01*
X7356Y10938D01*
X7441Y10921D01*
X7525Y10938D01*
X7597Y10986D01*
X7645Y11057D01*
X7662Y11142D01*
X7657Y11167D01*
X7729Y11206D01*
X8718Y10217D01*
Y9182D01*
X8702Y9172D01*
X8654Y9100D01*
X8637Y9016D01*
X8654Y8931D01*
X8702Y8860D01*
X8774Y8812D01*
X8858Y8795D01*
X8943Y8812D01*
X9014Y8860D01*
X9062Y8931D01*
X9079Y9016D01*
X9062Y9100D01*
X9014Y9172D01*
X8999Y9182D01*
Y10276D01*
X8988Y10329D01*
X8958Y10375D01*
X7777Y11556D01*
X7736Y11583D01*
X7727Y11592D01*
X7685Y11647D01*
X7689Y11671D01*
X7701Y11732D01*
X7697Y11751D01*
X7737Y11790D01*
X7768Y11836D01*
X7778Y11890D01*
Y12343D01*
X8957D01*
Y13091D01*
X8763D01*
Y13401D01*
X10557Y15195D01*
X10630Y15165D01*
D02*
G37*
G36*
X3232Y15618D02*
X3286Y15608D01*
X3989D01*
X4144Y15452D01*
X4190Y15421D01*
X4244Y15411D01*
X4506D01*
X4545Y15372D01*
Y13091D01*
X4432D01*
Y14245D01*
X4421Y14299D01*
X4391Y14344D01*
X3170Y15565D01*
X3220Y15626D01*
X3232Y15618D01*
D02*
G37*
G36*
X18306Y17533D02*
X18306Y15828D01*
X17682D01*
X17682Y15828D01*
X17651Y15822D01*
X17625Y15805D01*
X17542Y15721D01*
X17524Y15695D01*
X17518Y15665D01*
X17518Y14729D01*
X17435Y14646D01*
X16734Y14646D01*
X16734Y15192D01*
X16817Y15276D01*
X17047D01*
X17126Y15354D01*
Y15748D01*
X17047Y15827D01*
X16732D01*
X16727Y15821D01*
X16688Y15829D01*
X16422D01*
X16418Y15828D01*
X15597Y15828D01*
X15513Y15912D01*
X15513Y17481D01*
X15513Y17533D01*
X15513Y17533D01*
X15587Y17610D01*
X15623Y17616D01*
X18222D01*
X18306Y17533D01*
D02*
G37*
%LPC*%
G36*
X1280Y11971D02*
X1186D01*
X1138Y11961D01*
X1097Y11934D01*
X1070Y11893D01*
X1061Y11845D01*
Y11772D01*
X1280D01*
Y11971D01*
D02*
G37*
G36*
X3988Y17479D02*
X3901Y17468D01*
X3819Y17434D01*
X3750Y17380D01*
X3696Y17311D01*
X3662Y17229D01*
X3651Y17142D01*
X3662Y17054D01*
X3696Y16973D01*
X3750Y16903D01*
X3819Y16849D01*
X3901Y16816D01*
X3988Y16804D01*
X4076Y16816D01*
X4157Y16849D01*
X4227Y16903D01*
X4281Y16973D01*
X4314Y17054D01*
X4326Y17142D01*
X4314Y17229D01*
X4281Y17311D01*
X4227Y17380D01*
X4157Y17434D01*
X4076Y17468D01*
X3988Y17479D01*
D02*
G37*
G36*
X1890Y12837D02*
X1816D01*
X1768Y12828D01*
X1727Y12800D01*
X1700Y12760D01*
X1690Y12712D01*
Y12618D01*
X1890D01*
Y12837D01*
D02*
G37*
G36*
X7638Y17464D02*
X7550Y17452D01*
X7469Y17418D01*
X7399Y17365D01*
X7345Y17295D01*
X7312Y17213D01*
X7300Y17126D01*
X7312Y17039D01*
X7345Y16957D01*
X7399Y16887D01*
X7469Y16834D01*
X7550Y16800D01*
X7638Y16788D01*
X7725Y16800D01*
X7807Y16834D01*
X7876Y16887D01*
X7930Y16957D01*
X7964Y17039D01*
X7975Y17126D01*
X7964Y17213D01*
X7930Y17295D01*
X7876Y17365D01*
X7807Y17418D01*
X7725Y17452D01*
X7638Y17464D01*
D02*
G37*
G36*
X7374Y3275D02*
X7287Y3263D01*
X7205Y3229D01*
X7135Y3176D01*
X7082Y3106D01*
X7048Y3024D01*
X7036Y2937D01*
X7048Y2850D01*
X7082Y2768D01*
X7135Y2698D01*
X7205Y2645D01*
X7287Y2611D01*
X7374Y2599D01*
X7461Y2611D01*
X7543Y2645D01*
X7613Y2698D01*
X7666Y2768D01*
X7700Y2850D01*
X7712Y2937D01*
X7700Y3024D01*
X7666Y3106D01*
X7613Y3176D01*
X7543Y3229D01*
X7461Y3263D01*
X7374Y3275D01*
D02*
G37*
G36*
X906Y3212D02*
X808Y3199D01*
X717Y3161D01*
X639Y3101D01*
X579Y3023D01*
X541Y2932D01*
X528Y2835D01*
X541Y2737D01*
X579Y2646D01*
X639Y2568D01*
X717Y2508D01*
X808Y2470D01*
X906Y2457D01*
X1003Y2470D01*
X1094Y2508D01*
X1172Y2568D01*
X1232Y2646D01*
X1270Y2737D01*
X1283Y2835D01*
X1270Y2932D01*
X1232Y3023D01*
X1172Y3101D01*
X1094Y3161D01*
X1003Y3199D01*
X906Y3212D01*
D02*
G37*
G36*
X5947Y5728D02*
X5748D01*
Y5509D01*
X5822D01*
X5870Y5519D01*
X5911Y5546D01*
X5938Y5587D01*
X5947Y5635D01*
Y5728D01*
D02*
G37*
G36*
X8425Y3606D02*
X8328Y3593D01*
X8237Y3555D01*
X8158Y3495D01*
X8098Y3417D01*
X8061Y3326D01*
X8048Y3228D01*
X8061Y3131D01*
X8098Y3040D01*
X8158Y2962D01*
X8237Y2902D01*
X8328Y2864D01*
X8425Y2851D01*
X8523Y2864D01*
X8614Y2902D01*
X8692Y2962D01*
X8752Y3040D01*
X8790Y3131D01*
X8802Y3228D01*
X8790Y3326D01*
X8752Y3417D01*
X8692Y3495D01*
X8614Y3555D01*
X8523Y3593D01*
X8425Y3606D01*
D02*
G37*
G36*
X827Y13745D02*
X817Y13743D01*
X657D01*
X604Y13732D01*
X559Y13702D01*
X530Y13658D01*
X519Y13605D01*
Y13009D01*
X530Y12957D01*
X559Y12912D01*
X604Y12882D01*
X657Y12871D01*
X997D01*
X1049Y12882D01*
X1094Y12912D01*
X1124Y12957D01*
X1135Y13009D01*
Y13605D01*
X1124Y13658D01*
X1094Y13702D01*
X1049Y13732D01*
X997Y13743D01*
X837D01*
X827Y13745D01*
D02*
G37*
G36*
X7554Y14294D02*
X7461D01*
Y14094D01*
X7680D01*
Y14168D01*
X7670Y14216D01*
X7643Y14257D01*
X7602Y14284D01*
X7554Y14294D01*
D02*
G37*
G36*
X7343D02*
X7249D01*
X7201Y14284D01*
X7160Y14257D01*
X7133Y14216D01*
X7124Y14168D01*
Y14094D01*
X7343D01*
Y14294D01*
D02*
G37*
G36*
X7138Y16464D02*
X7050Y16452D01*
X6969Y16418D01*
X6899Y16365D01*
X6845Y16295D01*
X6812Y16213D01*
X6800Y16126D01*
X6812Y16039D01*
X6845Y15957D01*
X6899Y15887D01*
X6948Y15850D01*
X6921Y15771D01*
X6354D01*
X6328Y15850D01*
X6376Y15887D01*
X6430Y15957D01*
X6464Y16039D01*
X6475Y16126D01*
X6464Y16213D01*
X6430Y16295D01*
X6376Y16365D01*
X6307Y16418D01*
X6225Y16452D01*
X6138Y16464D01*
X6050Y16452D01*
X5969Y16418D01*
X5899Y16365D01*
X5845Y16295D01*
X5812Y16213D01*
X5800Y16126D01*
X5812Y16039D01*
X5845Y15957D01*
X5879Y15914D01*
X5883Y15854D01*
X5864Y15815D01*
X5827Y15787D01*
X5783Y15730D01*
X5755Y15662D01*
X5746Y15591D01*
X5755Y15519D01*
X5783Y15452D01*
X5827Y15394D01*
X5885Y15350D01*
X5952Y15322D01*
X6024Y15313D01*
X6096Y15322D01*
X6163Y15350D01*
X6220Y15394D01*
X6232Y15410D01*
X7744D01*
X7756Y15394D01*
X7814Y15350D01*
X7881Y15322D01*
X7953Y15313D01*
X8025Y15322D01*
X8092Y15350D01*
X8149Y15394D01*
X8193Y15452D01*
X8221Y15519D01*
X8231Y15591D01*
X8221Y15662D01*
X8193Y15730D01*
X8149Y15787D01*
X8092Y15831D01*
X8025Y15859D01*
X7953Y15869D01*
X7881Y15859D01*
X7814Y15831D01*
X7756Y15787D01*
X7744Y15771D01*
X7354D01*
X7328Y15850D01*
X7376Y15887D01*
X7430Y15957D01*
X7464Y16039D01*
X7475Y16126D01*
X7464Y16213D01*
X7430Y16295D01*
X7376Y16365D01*
X7307Y16418D01*
X7225Y16452D01*
X7138Y16464D01*
D02*
G37*
G36*
X945Y15241D02*
X853Y15223D01*
X818Y15200D01*
X657D01*
X604Y15189D01*
X559Y15159D01*
X530Y15114D01*
X519Y15062D01*
Y14905D01*
X486Y14856D01*
X468Y14764D01*
X486Y14672D01*
X519Y14622D01*
Y14466D01*
X530Y14413D01*
X559Y14368D01*
X604Y14339D01*
X657Y14328D01*
X997D01*
X1049Y14339D01*
X1094Y14368D01*
X1124Y14413D01*
X1135Y14466D01*
Y14859D01*
X1167Y14908D01*
X1186Y15000D01*
X1167Y15092D01*
X1115Y15170D01*
X1037Y15223D01*
X945Y15241D01*
D02*
G37*
G36*
X5039Y17228D02*
X4942Y17215D01*
X4851Y17177D01*
X4773Y17117D01*
X4713Y17039D01*
X4675Y16948D01*
X4662Y16850D01*
X4675Y16753D01*
X4713Y16662D01*
X4773Y16584D01*
X4851Y16524D01*
X4942Y16486D01*
X5039Y16473D01*
X5137Y16486D01*
X5228Y16524D01*
X5306Y16584D01*
X5366Y16662D01*
X5404Y16753D01*
X5417Y16850D01*
X5404Y16948D01*
X5366Y17039D01*
X5306Y17117D01*
X5228Y17177D01*
X5137Y17215D01*
X5039Y17228D01*
D02*
G37*
G36*
X6638Y17464D02*
X6550Y17452D01*
X6469Y17418D01*
X6399Y17365D01*
X6345Y17295D01*
X6312Y17213D01*
X6300Y17126D01*
X6312Y17039D01*
X6345Y16957D01*
X6399Y16887D01*
X6469Y16834D01*
X6550Y16800D01*
X6638Y16788D01*
X6725Y16800D01*
X6807Y16834D01*
X6876Y16887D01*
X6930Y16957D01*
X6964Y17039D01*
X6975Y17126D01*
X6964Y17213D01*
X6930Y17295D01*
X6876Y17365D01*
X6807Y17418D01*
X6725Y17452D01*
X6638Y17464D01*
D02*
G37*
G36*
X8189Y16795D02*
X8091Y16782D01*
X8000Y16744D01*
X7922Y16684D01*
X7862Y16606D01*
X7825Y16515D01*
X7812Y16417D01*
X7825Y16320D01*
X7862Y16229D01*
X7922Y16151D01*
X8000Y16091D01*
X8091Y16053D01*
X8189Y16040D01*
X8287Y16053D01*
X8378Y16091D01*
X8456Y16151D01*
X8516Y16229D01*
X8553Y16320D01*
X8566Y16417D01*
X8553Y16515D01*
X8516Y16606D01*
X8456Y16684D01*
X8378Y16744D01*
X8287Y16782D01*
X8189Y16795D01*
D02*
G37*
G36*
X6248Y14531D02*
X5248D01*
Y14185D01*
X5241Y14112D01*
X5226Y14091D01*
X5221Y14063D01*
X5221Y14063D01*
X5213Y14026D01*
Y13494D01*
X5226Y13429D01*
X5263Y13373D01*
X5319Y13336D01*
X5384Y13323D01*
X6112D01*
X6177Y13336D01*
X6233Y13373D01*
X6270Y13429D01*
X6283Y13494D01*
Y13502D01*
X6306Y13538D01*
X6323Y13622D01*
X6306Y13707D01*
X6283Y13742D01*
Y14026D01*
X6270Y14091D01*
X6255Y14112D01*
X6248Y14185D01*
Y14201D01*
Y14531D01*
D02*
G37*
%LPD*%
D10*
X10630Y4272D02*
D03*
Y3602D02*
D03*
X7402Y13366D02*
D03*
Y14035D02*
D03*
X1339Y11043D02*
D03*
Y11713D02*
D03*
D12*
X11988Y7441D02*
D03*
X11319D02*
D03*
X11319Y8031D02*
D03*
X11988D02*
D03*
X10295Y11220D02*
D03*
X10965D02*
D03*
Y11811D02*
D03*
X10295D02*
D03*
X5020Y5787D02*
D03*
X5689D02*
D03*
X2500Y10394D02*
D03*
X1831D02*
D03*
X2618Y12559D02*
D03*
X1949D02*
D03*
X1831Y9134D02*
D03*
X2500D02*
D03*
Y9803D02*
D03*
X1831D02*
D03*
X16555Y15551D02*
D03*
X17224D02*
D03*
X16594Y13346D02*
D03*
X17264D02*
D03*
D16*
X3346Y7244D02*
D03*
Y7441D02*
D03*
Y7638D02*
D03*
Y7835D02*
D03*
Y8031D02*
D03*
Y8228D02*
D03*
Y8425D02*
D03*
Y8622D02*
D03*
Y8819D02*
D03*
Y9016D02*
D03*
Y9213D02*
D03*
Y9409D02*
D03*
Y9606D02*
D03*
Y9803D02*
D03*
Y10000D02*
D03*
Y10197D02*
D03*
Y10394D02*
D03*
Y10591D02*
D03*
Y10787D02*
D03*
Y10984D02*
D03*
Y11181D02*
D03*
Y11378D02*
D03*
Y11575D02*
D03*
Y11772D02*
D03*
Y11968D02*
D03*
X9567D02*
D03*
Y11772D02*
D03*
Y11575D02*
D03*
Y11378D02*
D03*
Y11181D02*
D03*
Y10984D02*
D03*
Y10787D02*
D03*
Y10591D02*
D03*
Y10394D02*
D03*
Y10197D02*
D03*
Y10000D02*
D03*
Y9803D02*
D03*
Y9606D02*
D03*
Y9409D02*
D03*
Y9213D02*
D03*
Y9016D02*
D03*
Y8819D02*
D03*
Y8622D02*
D03*
Y8425D02*
D03*
Y8228D02*
D03*
Y8031D02*
D03*
Y7835D02*
D03*
Y7638D02*
D03*
Y7441D02*
D03*
Y7244D02*
D03*
D17*
X4094Y12717D02*
D03*
X4291D02*
D03*
X4488D02*
D03*
X4685D02*
D03*
X4882D02*
D03*
X5079D02*
D03*
X5276D02*
D03*
X5472D02*
D03*
X5669D02*
D03*
X5866D02*
D03*
X6063D02*
D03*
X6260D02*
D03*
X6457D02*
D03*
X6654D02*
D03*
X6850D02*
D03*
X7047D02*
D03*
X7244D02*
D03*
X7441D02*
D03*
X7638D02*
D03*
X7835D02*
D03*
X8031D02*
D03*
X8228D02*
D03*
X8425D02*
D03*
X8622D02*
D03*
X8819D02*
D03*
Y6496D02*
D03*
X8622D02*
D03*
X8425D02*
D03*
X8228D02*
D03*
X8031D02*
D03*
X7835D02*
D03*
X7638D02*
D03*
X7441D02*
D03*
X7244D02*
D03*
X7047D02*
D03*
X6850D02*
D03*
X6654D02*
D03*
X6457D02*
D03*
X6260D02*
D03*
X6063D02*
D03*
X5866D02*
D03*
X5669D02*
D03*
X5472D02*
D03*
X5276D02*
D03*
X5079D02*
D03*
X4882D02*
D03*
X4685D02*
D03*
X4488D02*
D03*
X4291D02*
D03*
X4094D02*
D03*
D27*
X8858Y9016D02*
Y10276D01*
X8819Y9016D02*
X8858D01*
X10472Y9213D02*
Y9252D01*
X10197Y8621D02*
Y10197D01*
X10000Y8703D02*
Y10630D01*
X10472Y9764D02*
X10748Y9488D01*
Y9138D02*
Y9488D01*
X10945Y9055D02*
Y9681D01*
X10591Y8980D02*
X10748Y9138D01*
X10591Y8458D02*
Y8980D01*
X10787Y8898D02*
X10945Y9055D01*
X10787Y8377D02*
Y8898D01*
X10276Y8143D02*
X10591Y8458D01*
X10472Y8062D02*
X10787Y8377D01*
X10610Y10016D02*
X10945Y9681D01*
X10394Y9134D02*
X10472Y9213D01*
X10157Y5906D02*
Y7087D01*
X10472Y7402D01*
X8858Y4606D02*
X10157Y5906D01*
X8543Y5906D02*
X8591D01*
X8819Y6134D01*
Y6496D01*
X10630Y2953D02*
Y3602D01*
X10669Y5617D02*
X10863Y5423D01*
X10748Y5000D02*
Y5308D01*
X10863Y5423D01*
X13144D01*
X13165Y5445D01*
X10906Y6220D02*
X11024D01*
X10748Y6378D02*
X10906Y6220D01*
X10748Y6378D02*
Y6732D01*
X11339Y6285D02*
Y6732D01*
Y6285D02*
X11404Y6220D01*
X11988Y7441D02*
X12047D01*
X10394Y8540D02*
Y9134D01*
X10079Y8225D02*
X10394Y8540D01*
X10001Y8425D02*
X10197Y8621D01*
X9919Y8622D02*
X10000Y8703D01*
X11988Y8031D02*
X12067D01*
X11535Y6732D02*
X12402D01*
X11142D02*
Y7264D01*
X11319Y7441D01*
X10945Y7657D02*
X11319Y8031D01*
X10945Y6732D02*
Y7657D01*
Y4529D02*
X11970Y3504D01*
X10945Y4529D02*
Y5000D01*
X10748Y4469D02*
Y5000D01*
X10591Y4311D02*
X10748Y4469D01*
X11970Y3504D02*
X13106D01*
X11142Y4611D02*
X11807Y3945D01*
X11142Y4611D02*
Y5000D01*
X11339Y4692D02*
X11586Y4445D01*
X11339Y4692D02*
Y5000D01*
X11807Y3945D02*
X12165D01*
X11586Y4445D02*
X13165D01*
X11772Y2441D02*
X12244Y2913D01*
X13346D01*
X13106Y3504D02*
X13165Y3445D01*
X12110Y5000D02*
X12165Y4945D01*
X11535Y5000D02*
X12110D01*
X13130Y4409D02*
X13165Y4445D01*
X7047Y12244D02*
X7126Y12165D01*
X7047Y12244D02*
Y12717D01*
X7441Y12083D02*
Y12717D01*
X7205Y11846D02*
X7441Y12083D01*
X7638Y11890D02*
Y12717D01*
X7480Y11732D02*
X7638Y11890D01*
X5276Y10114D02*
Y10512D01*
X5197Y10035D02*
X5276Y10114D01*
X5197Y9807D02*
Y10035D01*
X5276Y9221D02*
Y9728D01*
X5197Y9807D02*
X5276Y9728D01*
X5118Y10669D02*
X5276Y10512D01*
X5472Y9961D02*
Y10630D01*
X5748Y9415D02*
Y10596D01*
X5945Y9334D02*
Y10515D01*
X6142Y9252D02*
Y10433D01*
X6457Y8264D02*
Y10315D01*
X6654Y10118D02*
X6890Y10354D01*
X6654Y8345D02*
Y10118D01*
Y8345D02*
X6929Y8070D01*
X6142Y10433D02*
X6299Y10591D01*
X6735D01*
X6654Y10787D02*
X7008Y11142D01*
X6218Y10787D02*
X6654D01*
X6215Y11063D02*
X6535D01*
X6575Y11614D02*
X6654Y11693D01*
X6378Y11811D02*
Y12165D01*
X6299Y11732D02*
X6378Y11811D01*
X6299Y11457D02*
Y11732D01*
X5945Y10515D02*
X6218Y10787D01*
X4843Y8510D02*
X5748Y9415D01*
X5039Y8428D02*
X5945Y9334D01*
X5236Y8346D02*
X6142Y9252D01*
X8622Y7677D02*
X8976Y8031D01*
X7717Y7677D02*
X8622D01*
X7244Y7205D02*
X7717Y7677D01*
X7244Y6496D02*
Y7205D01*
X8858Y11181D02*
X9567D01*
X9016Y11535D02*
X9173Y11378D01*
X9567D01*
X10000Y10630D02*
X10157Y10787D01*
X10945Y11220D02*
X10965D01*
X7047Y14035D02*
X7402D01*
X7047Y12717D02*
Y14035D01*
X6850Y11811D02*
Y12717D01*
Y11811D02*
X6929Y11732D01*
X7205Y11618D02*
Y11846D01*
Y11618D02*
X7366Y11457D01*
X7008Y11142D02*
X7441D01*
X6893Y10748D02*
X7047D01*
X5472Y10630D02*
X6299Y11457D01*
X6735Y10591D02*
X6893Y10748D01*
X7366Y11457D02*
X7677D01*
X8858Y10276D01*
X6654Y11693D02*
Y12717D01*
X4764Y4882D02*
X4921D01*
X4685Y4961D02*
X4764Y4882D01*
X4685Y4961D02*
Y6496D01*
X4488Y4880D02*
Y6496D01*
Y4880D02*
X4840Y4528D01*
X4291Y4798D02*
X4759Y4331D01*
X4291Y4798D02*
Y6496D01*
X3898Y4913D02*
X4874Y3937D01*
X4374Y2937D02*
Y4159D01*
X3701Y4832D02*
X4374Y4159D01*
X4449Y7008D02*
Y7087D01*
X4331D02*
X4449D01*
Y7008D02*
X4564D01*
X4685Y6887D01*
Y6496D02*
Y6887D01*
X4882Y6496D02*
Y6969D01*
X4646Y7205D02*
X4882Y6969D01*
X4646Y7205D02*
Y8740D01*
X4843Y7312D02*
Y8510D01*
Y7312D02*
X5079Y7075D01*
Y6496D02*
Y7075D01*
X5236Y7475D02*
X5472Y7239D01*
X5236Y7475D02*
Y8346D01*
X5433Y7556D02*
Y8074D01*
Y7556D02*
X5669Y7320D01*
X5630Y7638D02*
X5866Y7402D01*
X5630Y7638D02*
Y7992D01*
X5787Y8150D01*
X5039Y7393D02*
Y8428D01*
Y7393D02*
X5276Y7157D01*
X5787Y8150D02*
X5906D01*
X6181Y7988D02*
Y8740D01*
X6181Y7988D02*
X6181Y7988D01*
X6181Y7760D02*
Y7988D01*
X6457Y6811D02*
Y7874D01*
X5472Y6496D02*
Y7239D01*
X5276Y6496D02*
Y7157D01*
X4646Y8740D02*
X4795D01*
X6181Y7760D02*
X6260Y7681D01*
Y6811D02*
Y7681D01*
X5709Y3937D02*
X5874D01*
X5119Y4528D02*
X5709Y3937D01*
X4840Y4528D02*
X5119D01*
X5374Y2937D02*
Y3994D01*
X5037Y4331D02*
X5374Y3994D01*
X4759Y4331D02*
X5037D01*
X3701Y6969D02*
X3780Y7047D01*
X3701Y4832D02*
Y6969D01*
X3898Y6887D02*
X3976Y6966D01*
X3898Y4913D02*
Y6887D01*
X10059Y11575D02*
X10484D01*
X6374Y2937D02*
X6431D01*
X7268Y3774D01*
Y4197D01*
X7677Y4606D01*
X8858D01*
X10472Y7402D02*
Y8062D01*
X10079Y7600D02*
Y8225D01*
X9919Y7441D02*
X10079Y7600D01*
X9567Y7441D02*
X9919D01*
X9567Y8425D02*
X10001D01*
X9567Y8622D02*
X9919D01*
X10001Y7244D02*
X10276Y7519D01*
Y8143D01*
X10610Y10016D02*
Y11448D01*
X10197Y10197D02*
X10276Y10276D01*
X10484Y11575D02*
X10610Y11448D01*
X5020Y5335D02*
Y5787D01*
Y5335D02*
X5039Y5315D01*
X4882Y5925D02*
Y6496D01*
X4795Y8740D02*
X5276Y9221D01*
X4882Y5925D02*
X5020Y5787D01*
X7913Y9055D02*
X7953D01*
X8976Y8031D01*
X10965Y11811D02*
Y12264D01*
X8976Y8031D02*
X9567D01*
Y7244D02*
X10001D01*
X10059Y11575D02*
X10295Y11811D01*
X9567Y11575D02*
X10059D01*
X10138Y11378D02*
X10295Y11220D01*
X9567Y11378D02*
X10138D01*
X7362Y13366D02*
X7539D01*
X5906Y7795D02*
X5945Y7756D01*
X5866Y6496D02*
Y7402D01*
X5669Y6496D02*
Y7320D01*
X6102Y8819D02*
X6181Y8740D01*
X5866Y8507D02*
Y8543D01*
X5433Y8074D02*
X5866Y8507D01*
X1496Y10039D02*
X1732Y9803D01*
X1831D01*
X1909Y10945D02*
X2343Y11378D01*
X1811Y11043D02*
X1909Y10945D01*
X1339Y11043D02*
X1811D01*
X1831Y9134D02*
Y9803D01*
X2500Y10394D02*
X2500Y10394D01*
X3346D01*
X4055Y11850D02*
X4488Y12283D01*
Y12717D01*
X1614Y3386D02*
X2047Y3819D01*
Y4528D01*
X2913Y5394D01*
X1614Y4386D02*
X2717Y5488D01*
Y8229D01*
X2913Y8425D01*
X2913Y8148D02*
X2994Y8228D01*
X2913Y5394D02*
Y8148D01*
X2913Y8425D02*
X3346D01*
X2994Y8228D02*
X3346D01*
X2500Y9980D02*
Y10394D01*
X2500Y10394D02*
X2500Y10394D01*
X3976Y6966D02*
Y7754D01*
X3699Y8031D02*
X3976Y7754D01*
X3346Y8031D02*
X3699D01*
X3780Y7047D02*
Y7557D01*
X3699Y7638D02*
X3780Y7557D01*
X3346Y7638D02*
X3699D01*
X2652Y9134D02*
X2928Y9409D01*
X2500Y9134D02*
X2652D01*
X2928Y9409D02*
X3346D01*
X2559Y9075D02*
X2618Y9016D01*
X3346D01*
X1831Y9803D02*
X2165Y9469D01*
X2708D01*
X2846Y9606D01*
X3346D01*
X2618Y11870D02*
Y12559D01*
Y11870D02*
X2913Y11575D01*
X2343Y11378D02*
X3346D01*
X7244Y13248D02*
X7362Y13366D01*
X7244Y12717D02*
Y13248D01*
X5748Y10596D02*
X6215Y11063D01*
X949Y16085D02*
X1286Y15748D01*
X949Y16085D02*
Y17142D01*
X1286Y15748D02*
X1729D01*
X2123Y15354D01*
X1752Y16003D02*
X2204Y15551D01*
X1752Y16003D02*
Y16004D01*
X1614Y16142D02*
X1752Y16004D01*
X3346Y11772D02*
X3699D01*
X1949Y16085D02*
Y17142D01*
Y16085D02*
X2286Y15748D01*
X1449Y16142D02*
X1614D01*
X13346Y2913D02*
X13559Y3126D01*
Y4608D01*
X13165Y5002D02*
X13559Y4608D01*
X13165Y5002D02*
Y5445D01*
X6929Y7678D02*
Y8070D01*
X6850Y7600D02*
X6929Y7678D01*
X6850Y6811D02*
Y7600D01*
X6457Y8264D02*
X6732Y7988D01*
Y7760D02*
Y7988D01*
X6654Y7681D02*
X6732Y7760D01*
X6654Y6811D02*
Y7681D01*
X6063Y6811D02*
Y7600D01*
X5984Y7678D02*
X6063Y7600D01*
X5984Y7678D02*
Y7756D01*
X5945D02*
X5984D01*
X2913Y11575D02*
X3346D01*
X10677Y15987D02*
Y16142D01*
X7835Y12717D02*
Y13228D01*
X9215Y7835D02*
X9567D01*
X9134Y7754D02*
X9215Y7835D01*
X9134Y7480D02*
Y7754D01*
X8898Y7244D02*
X9134Y7480D01*
X5079Y12717D02*
Y13386D01*
X2949Y16085D02*
Y17142D01*
Y16085D02*
X3286Y15748D01*
X4882Y12717D02*
Y15512D01*
X4325Y15748D02*
X4646D01*
X4882Y15512D01*
X3488Y16142D02*
X3931D01*
X4325Y15748D01*
X3286D02*
X4047D01*
X4244Y15551D01*
X4564D01*
X4685Y15430D01*
Y12717D02*
Y15430D01*
X2347Y15354D02*
X3701Y14000D01*
X2123Y15354D02*
X2347D01*
X2204Y15551D02*
X2428D01*
X3898Y14082D01*
X2286Y15748D02*
X2510D01*
X4094Y14163D01*
Y12717D02*
Y14163D01*
X2488Y15945D02*
Y16142D01*
Y15945D02*
X2591D01*
X4291Y14245D01*
Y12717D02*
Y14245D01*
X4055Y11644D02*
Y11850D01*
X3346Y11968D02*
X3580D01*
X3701Y12089D01*
X3699Y11772D02*
X3898Y11970D01*
Y14082D01*
X3701Y12089D02*
Y14000D01*
X10795Y15632D02*
Y16142D01*
X10295Y15411D02*
Y17142D01*
X9795Y15189D02*
Y16142D01*
X8622Y12717D02*
Y13459D01*
X10795Y15632D01*
X8425Y12717D02*
Y13541D01*
X10295Y15411D01*
X7835Y13228D02*
X9795Y15189D01*
X7539Y13366D02*
X8150Y13976D01*
X8189D01*
D28*
X12402Y6732D02*
Y7992D01*
X11988Y8031D02*
X12028Y7992D01*
X12402D01*
X12677Y8268D01*
X12402Y6181D02*
Y6732D01*
X12165Y5945D02*
X12402Y6181D01*
X6024Y15591D02*
X7953D01*
X12886Y11272D02*
Y11433D01*
X12992Y11772D02*
X13150D01*
X12874Y12087D02*
X13307Y12520D01*
X12862Y12087D02*
X12874D01*
X12886Y11272D02*
X13189Y10969D01*
X13150Y11772D02*
X13465Y11457D01*
Y8898D02*
Y11457D01*
X12795Y16142D02*
X13307Y15630D01*
Y12520D02*
Y15630D01*
X12677Y11902D02*
X12862Y12087D01*
X12677Y11641D02*
Y11902D01*
Y11641D02*
X12886Y11433D01*
X13189Y9422D02*
Y10969D01*
X12677Y8910D02*
X13189Y9422D01*
X13346Y8780D02*
X13465Y8898D01*
X12677Y8268D02*
X12953D01*
X12677D02*
Y8910D01*
X13346Y6102D02*
Y8780D01*
X12992D02*
X13346D01*
X13165Y5921D02*
X13346Y6102D01*
X13165Y5445D02*
Y5921D01*
X2362Y7854D02*
Y8465D01*
X2126Y7618D02*
X2362Y7854D01*
Y8465D02*
X2441Y8543D01*
Y9075D01*
X2500Y9134D01*
D31*
X5748Y13760D02*
X5886Y13622D01*
X6102D01*
D32*
X9295Y17142D02*
D03*
X9795Y16142D02*
D03*
X10295Y17142D02*
D03*
X10795Y16142D02*
D03*
X11295Y17142D02*
D03*
X11795Y16142D02*
D03*
X12295Y17142D02*
D03*
X12795Y16142D02*
D03*
X7874Y3937D02*
D03*
X7374Y2937D02*
D03*
X6874Y3937D02*
D03*
X6374Y2937D02*
D03*
X5874Y3937D02*
D03*
X5374Y2937D02*
D03*
X4874Y3937D02*
D03*
X4374Y2937D02*
D03*
X6138Y16126D02*
D03*
X6638Y17126D02*
D03*
X7138Y16126D02*
D03*
X7638Y17126D02*
D03*
X12165Y5945D02*
D03*
X13165Y5445D02*
D03*
X12165Y4945D02*
D03*
X13165Y4445D02*
D03*
X12165Y3945D02*
D03*
X13165Y3445D02*
D03*
X614Y4886D02*
D03*
X1614Y4386D02*
D03*
X614Y3886D02*
D03*
X1614Y3386D02*
D03*
X988Y17142D02*
D03*
X1488Y16142D02*
D03*
X1988Y17142D02*
D03*
X2488Y16142D02*
D03*
X2988Y17142D02*
D03*
X3488Y16142D02*
D03*
X3988Y17142D02*
D03*
X4488Y16142D02*
D03*
D33*
X18583Y11614D02*
D03*
D34*
X16614Y11614D02*
D03*
D35*
X7441Y5866D02*
D03*
X7283Y4685D02*
D03*
X9646Y5866D02*
D03*
X8858Y5551D02*
D03*
X1755Y8474D02*
D03*
X1890Y10394D02*
D03*
X748Y11102D02*
D03*
X10000Y5039D02*
D03*
X1850Y5709D02*
D03*
X2362Y6654D02*
D03*
X3307Y6811D02*
D03*
X4016Y4055D02*
D03*
X1693Y2638D02*
D03*
X3228D02*
D03*
X9803Y6890D02*
D03*
X9961Y2638D02*
D03*
Y3543D02*
D03*
X6220Y5748D02*
D03*
X6457Y5079D02*
D03*
X8740Y4094D02*
D03*
X3898Y8661D02*
D03*
X394Y6063D02*
D03*
Y17323D02*
D03*
Y15551D02*
D03*
X5827Y17323D02*
D03*
X4528D02*
D03*
X5512Y15945D02*
D03*
X8465Y17323D02*
D03*
X9055Y15748D02*
D03*
X3268Y12362D02*
D03*
X16220Y11024D02*
D03*
X17598D02*
D03*
X17205Y11614D02*
D03*
X17992D02*
D03*
Y10433D02*
D03*
X17205D02*
D03*
X15827Y11614D02*
D03*
Y10433D02*
D03*
X16614D02*
D03*
X16220Y11417D02*
D03*
X15827Y11220D02*
D03*
Y10827D02*
D03*
X16220Y10630D02*
D03*
X16614Y10827D02*
D03*
Y11220D02*
D03*
X17205D02*
D03*
Y10827D02*
D03*
X17598Y11417D02*
D03*
X17992Y11220D02*
D03*
Y10827D02*
D03*
X17598Y10630D02*
D03*
X16220Y16732D02*
D03*
X17598D02*
D03*
X15827Y17323D02*
D03*
Y16142D02*
D03*
X16614D02*
D03*
Y17323D02*
D03*
X16220Y17126D02*
D03*
X15827Y16929D02*
D03*
Y16535D02*
D03*
X16220Y16339D02*
D03*
X16614Y16535D02*
D03*
Y16929D02*
D03*
X17205Y17323D02*
D03*
X17992D02*
D03*
Y16142D02*
D03*
X17205D02*
D03*
Y16535D02*
D03*
Y16929D02*
D03*
X17598Y17126D02*
D03*
X17992Y16929D02*
D03*
Y16535D02*
D03*
X17598Y16339D02*
D03*
D36*
X8858Y9016D02*
D03*
X10472Y9291D02*
D03*
X8543Y5906D02*
D03*
X3976Y9646D02*
D03*
X10630Y2953D02*
D03*
X10669Y5617D02*
D03*
X11024Y6220D02*
D03*
X11404D02*
D03*
X12047Y7441D02*
D03*
X11772Y2441D02*
D03*
X7126Y12165D02*
D03*
X4921Y9646D02*
D03*
X5472Y9921D02*
D03*
X6457Y10315D02*
D03*
X6535Y11063D02*
D03*
X6575Y11614D02*
D03*
X5118Y10669D02*
D03*
X5118Y12008D02*
D03*
X3878Y11260D02*
D03*
X8858Y11181D02*
D03*
X9016Y11535D02*
D03*
X10157Y10787D02*
D03*
X10945Y11220D02*
D03*
X10472Y9764D02*
D03*
X6929Y11732D02*
D03*
X7441Y11142D02*
D03*
X7047Y10748D02*
D03*
X6890Y10354D02*
D03*
X7480Y11732D02*
D03*
X6024Y12201D02*
D03*
X6378Y12165D02*
D03*
X4921Y4882D02*
D03*
X4331Y7087D02*
D03*
X5906Y8150D02*
D03*
X6457Y7874D02*
D03*
X4646Y8740D02*
D03*
X12886Y11272D02*
D03*
X12992Y11772D02*
D03*
X10276Y10276D02*
D03*
X5039Y5315D02*
D03*
X12992Y8780D02*
D03*
X12953Y8268D02*
D03*
X7913Y9055D02*
D03*
X10965Y12264D02*
D03*
X8976Y8031D02*
D03*
X6102Y13622D02*
D03*
X5906Y7795D02*
D03*
X6102Y8819D02*
D03*
X5866Y8543D02*
D03*
X1496Y10039D02*
D03*
X2500Y9980D02*
D03*
X4055Y11644D02*
D03*
X8474Y9833D02*
D03*
X9094Y12638D02*
D03*
X9331Y13307D02*
D03*
X8189Y13976D02*
D03*
X7756Y14055D02*
D03*
D37*
X945Y15000D02*
D03*
X709Y14764D02*
D03*
X3268Y13976D02*
D03*
Y13386D02*
D03*
X1378Y12441D02*
D03*
X2677Y13228D02*
D03*
X2598Y13976D02*
D03*
X2008Y14016D02*
D03*
X2598Y14685D02*
D03*
X10354Y14409D02*
D03*
X8701Y14764D02*
D03*
X8898Y7244D02*
D03*
X7874D02*
D03*
X7323Y7874D02*
D03*
X7047Y8583D02*
D03*
X10315Y13307D02*
D03*
X827Y13504D02*
D03*
X3976Y15354D02*
D03*
X4331Y14646D02*
D03*
X9813Y12589D02*
D03*
D38*
X6024Y15591D02*
D03*
X7953D02*
D03*
D39*
X10748Y6732D02*
D03*
D40*
X10945D02*
D03*
X11142D02*
D03*
X11339D02*
D03*
X11535D02*
D03*
X10748Y5000D02*
D03*
X10945D02*
D03*
X11142D02*
D03*
X11339D02*
D03*
X11535D02*
D03*
D41*
X2126Y6476D02*
D03*
Y7618D02*
D03*
X5748Y14902D02*
D03*
Y13760D02*
D03*
D42*
X2362Y8465D02*
D03*
X1654D02*
D03*
D43*
X1909Y11890D02*
D03*
Y10984D02*
D03*
X2638D02*
D03*
Y11890D02*
D03*
D44*
X827Y14764D02*
D03*
X2008D02*
D03*
X827Y13307D02*
D03*
X2008D02*
D03*
D45*
X15984Y13543D02*
D03*
X19331D02*
D03*
D46*
X15484D02*
D03*
X14984D02*
D03*
X14484D02*
D03*
X15984Y15386D02*
D03*
X15484D02*
D03*
X14984D02*
D03*
X14484D02*
D03*
X18831Y13543D02*
D03*
X18331D02*
D03*
X17831D02*
D03*
X19331Y15386D02*
D03*
X18831D02*
D03*
X18331D02*
D03*
X17831D02*
D03*
D47*
X17283Y13929D02*
D03*
X16909D02*
D03*
X16535D02*
D03*
X17283Y14961D02*
D03*
X16909D02*
D03*
D48*
X16535D02*
D03*
D49*
X18976Y11024D02*
D03*
Y16732D02*
D03*
X16220Y11024D02*
D03*
X14843D02*
D03*
Y16732D02*
D03*
X16220D02*
D03*
X17598Y11024D02*
D03*
Y16732D02*
D03*
D50*
X16909Y13929D02*
Y14075D01*
X16654Y14331D02*
X16909Y14075D01*
X14921Y14331D02*
X16654D01*
X14484Y13894D02*
X14921Y14331D01*
X14484Y13543D02*
Y13894D01*
X16535Y13406D02*
Y13929D01*
Y13406D02*
X16594Y13346D01*
X17283Y13366D02*
Y13929D01*
X17264Y13346D02*
X17283Y13366D01*
Y13929D02*
X17646D01*
X17831Y13744D01*
Y13543D02*
Y13744D01*
M02*
